<svg height="435pt" viewBox="0 -11 435.376 435" width="435pt" xmlns="http://www.w3.org/2000/svg"><path d="m400.128906.1875h-364.882812c-19.457032.023438-35.2226565 15.789062-35.246094 35.246094v257.675781c.0234375 19.457031 15.789062 35.226563 35.246094 35.246094h120.492187v71.832031h-27.9375c-3.316406 0-6 2.6875-6 6s2.683594 6 6 6h185.039063c3.3125 0 6-2.6875 6-6s-2.6875-6-6-6h-33.199219v-71.832031h120.488281c19.457032-.019531 35.226563-15.789063 35.246094-35.246094v-257.675781c-.023438-19.457032-15.789062-35.222656-35.246094-35.246094zm-364.882812 12h364.882812c12.832032.015625 23.234375 10.414062 23.246094 23.246094v224.976562h-411.375v-224.976562c.015625-12.832032 10.414062-23.230469 23.246094-23.246094zm232.390625 388h-99.902344v-71.832031h99.902344zm132.492187-83.832031h-364.882812c-12.832032-.011719-23.230469-10.410157-23.246094-23.246094v-20.699219h411.375v20.699219c-.011719 12.835937-10.414062 23.234375-23.246094 23.246094zm0 0"/><path d="m187.238281 165.933594c2.074219 0 3.675781-.660156 4.148438-2.449219l3.585937-12.546875h21.597656l3.585938 12.546875c.472656 1.789063 2.074219 2.449219 4.148438 2.449219 3.300781 0 7.734374-2.167969 7.734374-5.089844-.027343-.324219-.089843-.640625-.1875-.945312l-18.203124-59.324219c-.847657-2.828125-4.335938-4.148438-7.921876-4.148438-3.488281 0-6.976562 1.320313-7.828124 4.148438l-18.210938 59.324219c-.089844.308593-.152344.625-.1875.945312.003906 3.015625 4.4375 5.089844 7.738281 5.089844zm18.484375-53.570313 8.207032 28.957031h-16.410157zm0 0"/><path d="m244.671875 165.933594c3.019531 0 6.128906-1.320313 6.128906-3.867188v-61.296875c0-2.640625-3.109375-3.773437-6.128906-3.773437-3.113281 0-6.128906 1.132812-6.128906 3.773437v61.296875c0 2.546875 3.015625 3.867188 6.128906 3.867188zm0 0"/><path d="m56.773438 161.386719c11.542968.003906 21.597656-7.875 24.351562-19.085938h45.761719c.503906 7.6875 1.992187 15.277344 4.425781 22.585938h-3.265625c-14.042969.015625-25.421875 11.398437-25.4375 25.441406-.007813 7.417969-6.023437 13.429687-13.441406 13.4375h-3.746094c-3.035156-12.324219-14.796875-20.445313-27.394531-18.917969-12.601563 1.53125-22.078125 12.226563-22.078125 24.917969 0 12.695313 9.476562 23.390625 22.078125 24.917969 12.597656 1.527344 24.359375-6.589844 27.394531-18.917969h3.746094c14.042969-.015625 25.425781-11.394531 25.441406-25.4375.007813-7.421875 6.019531-13.433594 13.4375-13.441406h8.242187c13.949219 27.945312 41.273438 46.769531 72.351563 49.847656 3.042969.300781 6.070313.449219 9.085937.449219 34.382813-.085938 65.78125-19.542969 81.160157-50.296875h8.449219c7.417968.011719 13.429687 6.023437 13.4375 13.441406.015624 14.042969 11.394531 25.425781 25.441406 25.441406h3.746094c3.035156 12.324219 14.792968 20.445313 27.394531 18.914063 12.601562-1.527344 22.078125-12.222656 22.078125-24.914063 0-12.695312-9.476563-23.390625-22.078125-24.917969-12.601563-1.527343-24.359375 6.589844-27.394531 18.917969h-3.746094c-7.421875-.011719-13.433594-6.023437-13.441406-13.441406-.015626-14.042969-11.394532-25.425781-25.4375-25.441406h-3.515626c2.109376-6.382813 3.507813-12.976563 4.171876-19.667969.097656-.972656.167968-1.945312.234374-2.917969h46.023438c3.035156 12.328125 14.792969 20.445313 27.394531 18.917969 12.601563-1.527344 22.078125-12.222656 22.078125-24.917969 0-12.691406-9.476562-23.386719-22.078125-24.917969-12.601562-1.527343-24.359375 6.59375-27.394531 18.917969h-46.019531c-.5-7.683593-1.988281-15.277343-4.421875-22.582031h3.527344c14.042968-.019531 25.421874-11.398438 25.4375-25.441406.007812-7.421875 6.019531-13.433594 13.441406-13.441406h3.746094c1.085937 4.445312 3.375 8.507812 6.613281 11.738281 8.0625 8.074219 20.554687 9.691406 30.410156 3.941406s14.589844-17.425781 11.527344-28.414063c-3.0625-10.992187-13.152344-18.535156-24.558594-18.363281-11.410156.175781-21.265625 8.019531-23.992187 19.097657h-3.75c-14.042969.015624-25.421876 11.398437-25.4375 25.441406-.007813 7.417968-6.023438 13.429687-13.441407 13.441406h-8.5c-15.371093-30.816406-46.847656-50.289062-81.285156-50.289062s-65.914063 19.472656-81.289063 50.289062h-8.210937c-7.421875-.011719-13.433594-6.023438-13.441406-13.441406-.015625-14.042969-11.394531-25.425782-25.441407-25.441406h-3.746093c-2.734375-11.054688-12.574219-18.878907-23.960938-19.046876-11.386719-.167968-21.457031 7.363282-24.511719 18.335938-3.058593 10.96875 1.667969 22.621094 11.5 28.363281 9.835938 5.746094 22.304688 4.136719 30.359376-3.914062 3.238281-3.230469 5.527343-7.292969 6.613281-11.738281h3.746093c7.421876.007812 13.433594 6.023437 13.441407 13.441406.015625 14.042968 11.394531 25.421875 25.4375 25.441406h3.253906c-2.113281 6.378906-3.511719 12.976562-4.167969 19.667969-.101562.972656-.171875 1.945312-.238281 2.914062h-45.765625c-3.128906-12.6875-15.476562-20.847656-28.375-18.75-12.902344 2.09375-22.03125 13.746094-20.976562 26.773438 1.050781 13.027343 11.929687 23.0625 25 23.0625zm13.542968 57.632812c-5.109375 5.105469-13.386718 5.101563-18.496094-.003906-5.105468-5.109375-5.105468-13.386719 0-18.496094 5.109376-5.105469 13.386719-5.109375 18.496094-.003906 5.101563 5.113281 5.101563 13.390625 0 18.503906zm294.742188-18.503906c5.109375-5.113281 13.398437-5.113281 18.507812-.003906 5.113282 5.113281 5.113282 13.398437 0 18.511719-5.109375 5.109374-13.398437 5.109374-18.507812-.003907-5.105469-5.113281-5.105469-13.394531 0-18.507812zm4.289062-73.46875c5.113282-5.109375 13.398438-5.109375 18.507813 0 5.113281 5.113281 5.113281 13.398437 0 18.507813-5.109375 5.113281-13.394531 5.113281-18.507813 0-2.476562-2.441407-3.871094-5.777344-3.871094-9.253907 0-3.480469 1.394532-6.8125 3.871094-9.253906zm-4.289062-73.464844c5.109375-5.109375 13.394531-5.109375 18.507812 0 5.109375 5.109375 5.109375 13.398438 0 18.507813-5.113281 5.109375-13.398437 5.109375-18.507812 0-5.105469-5.113282-5.105469-13.394532 0-18.511719zm-294.742188 18.507813c-5.109375 5.105468-13.390625 5.101562-18.496094-.007813-5.105468-5.105469-5.105468-13.386719 0-18.496093 5.105469-5.109376 13.386719-5.109376 18.496094-.003907 5.101563 5.113281 5.101563 13.390625 0 18.507813zm154.980469-14.28125c43.351563 4.273437 75.027344 42.882812 70.75 86.230468-4.273437 43.351563-42.878906 75.027344-86.230469 70.753907-43.347656-4.277344-75.023437-42.882813-70.75-86.230469 1.917969-20.875 12.121094-40.109375 28.324219-53.40625 16.203125-13.292969 37.0625-19.542969 57.90625-17.347656zm-177.777344 69.238281c5.109375-5.113281 13.398438-5.113281 18.507813-.003906 5.113281 5.113281 5.113281 13.398437 0 18.507812-5.109375 5.113281-13.398438 5.113281-18.507813 0-2.472656-2.441406-3.867187-5.773437-3.867187-9.253906 0-3.476563 1.394531-6.808594 3.867187-9.25zm0 0"/></svg>