<?xml version="1.0" encoding="utf-8"?>
<!-- Generator: Adobe Illustrator 24.0.1, SVG Export Plug-In . SVG Version: 6.00 Build 0)  -->
<svg version="1.1" id="Layer_1" xmlns="http://www.w3.org/2000/svg" xmlns:xlink="http://www.w3.org/1999/xlink" x="0px" y="0px"
	 viewBox="0 0 512 512" style="enable-background:new 0 0 512 512;" xml:space="preserve">
<style type="text/css">
	.st0{fill:#B47D4D;}
	.st1{fill:#91D3EE;}
	.st2{fill:#37A5CA;}
	.st3{fill:#FBD5B6;}
	.st4{fill:#F9C89B;}
	.st5{fill:#D4E4F0;}
	.st6{fill:#C1D7E6;}
	.st7{fill:#9D6342;}
	.st8{fill:#394F5A;}
</style>
<rect class="st0" width="512" height="512"/>
<g id="Flat">
	
		<image style="overflow:visible;opacity:0.57;" width="494" height="503" xlink:href="C5F06A68.png"  transform="matrix(1 0 0 1 6 12)">
	</image>
	<g>
		<g>
			<path class="st1" d="M344,232l-18.9,176.6l-1.8,17.1L320,456h-88l-4.2-4.9l-11.6-13.6l-57.5-67L136,344l-56-8l-35.9-35.9
				c-6.7-6.7-6.7-17.5,0-24.1c6.6-6.6,17.3-6.7,24-0.1L97,304h79l24.2,31.5L256,408l-5.5-55.3c-0.4-3.7-0.6-7.5-0.6-11.1
				C250,286.8,289.9,240.3,344,232L344,232z"/>
			<path class="st2" d="M325.1,408.6l-1.8,17.1L271.9,440l-44.1,11l-11.6-13.6l51.8-13L325.1,408.6z"/>
			<path class="st3" d="M200.2,335.5L200,336l-40,32l-1.3,2.5L136,344l-56-8l-35.9-35.9c-6.7-6.7-6.7-17.5,0-24.1
				c6.6-6.6,17.3-6.7,24-0.1L97,304h79L200.2,335.5z"/>
			<path class="st4" d="M136,304l-20.8-16.1c-5-3.8-5.9-11-2-15.9c0.3-0.4,0.6-0.7,1-1.1c4-4,10.2-4.4,14.7-1.2L176,304H136z"/>
			<path class="st5" d="M473,318l-13.9,138.9l-3.9,39.1H322.8l-11.4-32.7l-10.9-31.2l-5.3-15.1L279,370.8c-9.3-26.6-4-56,14-77.6
				l51-61.2l64-8l5.3,1.8C452.3,238.8,477.1,277.1,473,318L473,318z"/>
			<path class="st6" d="M459.1,456.9l-3.9,39.1H322.8l-11.4-32.7L459.1,456.9z"/>
			<path class="st1" d="M473,318l-13.9,138.9l-3.9,39.1H368l-5-34.9l-1.7-12.2c-1.6-10.9-2.6-21.9-3.1-32.8
				c-0.2-5.5-0.3-11-0.3-16.5c0.3-62,17.6-122.7,50.1-175.5l5.3,1.8C452.3,238.8,477.1,277.1,473,318z"/>
			<path class="st0" d="M456,168c0,17.7-14.3,32-32,32c-17.7,0-32-14.3-32-32s14.3-32,32-32c5.3,0,10.6,1.3,15.2,3.9
				C449.6,145.5,456,156.3,456,168z"/>
			<path class="st7" d="M439.3,139.9c-8,19.8-23,36-42.3,45.4c-9.5-14.9-5.2-34.7,9.7-44.2C416.6,134.8,429,134.3,439.3,139.9z"/>
			<path class="st3" d="M408,224l-64,8l3.4-13.7l4.2-16.9l0.4-1.4l8.5-2.4L376,168l20-9.7L408,224z"/>
			<path class="st3" d="M383.6,173.6c-2.5,0.9-5,1.7-7.6,2.4l-16,24l-48,8l-16-56h-16l13.5-67.3c1.3-6.3,3.1-12.4,5.6-18.3
				c0.9-2,1.8-4,2.8-6c16.3-32.5,55.9-45.7,88.4-29.5c18.7,9.3,31.8,26.9,35.4,47.5l2.9,16.6C434.5,128.6,415.6,161.7,383.6,173.6z"
				/>
			<path class="st8" d="M320,128h-8c-4.4,0-8-3.6-8-8s3.6-8,8-8h8c4.4,0,8,3.6,8,8S324.4,128,320,128z"/>
			<path class="st4" d="M360,128l3.9-7.8c2.5-5,7.6-8.2,13.3-8.2c8.2,0,14.8,6.6,14.8,14.8c0,0,0,0,0,0c0,11-4.4,21.5-12.1,29.3
				l-1,1c-1.8,1.8-4.3,2.8-6.8,2.8s-5-1-6.8-2.8L360,152V128z"/>
			<path class="st0" d="M383.6,173.6l-3-18.2L376,128l-11.4-9.1L299,66.4c0.9-2,1.8-4,2.8-6c16.3-32.5,55.9-45.7,88.4-29.5
				c18.7,9.3,31.8,26.9,35.4,47.5l2.9,16.6C434.5,128.6,415.6,161.7,383.6,173.6L383.6,173.6z"/>
			<path class="st7" d="M392,126.8c0,10.6-4.1,20.9-11.4,28.6L376,128l-11.4-9.1c4.4-6.9,13.5-9,20.4-4.6
				C389.4,117,392,121.7,392,126.8z"/>
			<path class="st3" d="M352,128l3.9-7.8c2.5-5,7.6-8.2,13.3-8.2c8.2,0,14.8,6.6,14.8,14.8c0,0,0,0,0,0c0,11-4.4,21.5-12.1,29.3
				l-1,1c-1.8,1.8-4.3,2.8-6.8,2.8s-5-1-6.8-2.8L352,152V128z"/>
			<path class="st2" d="M459.1,456.9l-3.9,39.1H368l-5-34.9L459.1,456.9z"/>
			<path class="st1" d="M408,224l11.8,3.9c35.9,12,60.2,45.6,60.2,83.5V456l-192,32l-16-48l144-40v-88L408,224z"/>
			<path class="st3" d="M272,440l-85.8,21.4c-6,1.5-10.2,6.9-10.2,13.1c0,7.4,6,13.5,13.5,13.5h0H288L272,440z"/>
			<path class="st4" d="M384,192.9l-12.6,18.9c-1.2,1.8-3.2,3.1-5.3,3.4l-18.6,3.1l4.2-16.9l8.4-1.4l10.7-16L384,192.9z"/>
			<path class="st6" d="M416,312v88l-115.6,32.1l-5.3-15.1L400,387.8V312H416z"/>
			<path class="st2" d="M416,312v88l-57.8,16.1c-0.2-5.5-0.3-11-0.3-16.5l42.1-11.7V312H416z"/>
			<path class="st1" d="M152,240H16V48h88l48,48V240z"/>
			<g>
				<path class="st2" d="M104,48v48h48L104,48z"/>
				<path class="st2" d="M40,72h32v16H40V72z"/>
				<path class="st2" d="M40,104h32v16H40V104z"/>
				<path class="st2" d="M56,136h32v16H56V136z"/>
				<path class="st2" d="M104,136h24v16h-24V136z"/>
				<path class="st2" d="M40,168h32v16H40V168z"/>
				<path class="st2" d="M88,168h16v16H88V168z"/>
			</g>
		</g>
	</g>
</g>
</svg>
