<svg height="512" viewBox="0 0 512 512" width="512" xmlns="http://www.w3.org/2000/svg"><g id="Flat"><path d="m344 232-18.92993 176.65-1.83007 17.12-3.24 30.23h-88l-4.23-4.94-11.64-13.58-57.46008-67.03-22.66992-26.45-56-8-35.92993-35.93a17.07375 17.07375 0 0 1 24-24.29l28.89993 28.22h79.03l24.24 31.52 55.76 72.48-5.53-55.3c-.37-3.74-.56006-7.47-.56006-11.15a110.96334 110.96334 0 0 1 94.09006-109.55z" fill="#91d3ee"/><path d="m325.07 408.65-1.83 17.12-51.34 14.26-44.13 11.03-11.64-13.58 51.79-12.95z" fill="#37a5ca"/><path d="m200.24 335.52-.24.48-40 32-1.33008 2.45-22.66992-26.45-56-8-35.92993-35.93a17.07375 17.07375 0 0 1 24-24.29l28.89993 28.22h79.03z" fill="#fbd5b6"/><path d="m136 304-20.814-16.09877a11.36977 11.36977 0 0 1 -1.0835-17.03317 11.36974 11.36974 0 0 1 14.72466-1.1572l47.17284 34.28914z" fill="#f9c89b"/><path d="m473 318-13.89 138.91-3.91 39.09h-132.39995l-11.43-32.67-10.93011-31.23-5.29994-15.13-16.16-46.17a79.999 79.999 0 0 1 14.05-77.64l50.97-61.16 64-8 5.27 1.76a87.9948 87.9948 0 0 1 59.73 92.24z" fill="#d4e4f0"/><path d="m459.11 456.91-3.91 39.09h-132.4l-11.43-32.67z" fill="#c1d7e6"/><path d="m473 318-13.89 138.91-3.91 39.09h-87.2l-4.99-34.91-1.74-12.2q-2.34009-16.39507-3.07007-32.83-.36-8.265-.32-16.52a337.79463 337.79463 0 0 1 50.12007-175.54l5.27 1.76a87.9948 87.9948 0 0 1 59.73 92.24z" fill="#91d3ee"/><path d="m456 168a31.97723 31.97723 0 1 1 -16.71-28.12 32.004 32.004 0 0 1 16.71 28.12z" fill="#b47d4d"/><path d="m439.29 139.88a86.598 86.598 0 0 1 -42.25 45.38 32.01483 32.01483 0 0 1 42.25-45.38z" fill="#9d6342"/><path d="m408 224-64 8 3.42-13.69 4.23-16.92.35-1.39 8.55-2.43 15.45-29.57 19.95-9.67z" fill="#fbd5b6"/><path d="m383.61 173.64a70.05455 70.05455 0 0 1 -7.61 2.36l-16 24-48 8-16-56h-16l13.46-67.31a97.75382 97.75382 0 0 1 5.58-18.26c.85-2.03 1.76-4.04 2.75-6.01a65.88984 65.88984 0 0 1 123.82 18.02l2.93 16.59a70.81035 70.81035 0 0 1 -44.93 78.61z" fill="#fbd5b6"/><path d="m320 128h-8a8 8 0 0 1 0-16h8a8 8 0 0 1 0 16z" fill="#394f5a"/><path d="m360 128 3.90031-7.80063a14.8328 14.8328 0 0 1 13.26687-8.19937 14.8328 14.8328 0 0 1 14.83282 14.8328 41.44521 41.44521 0 0 1 -12.139 29.3062l-1.03256 1.03256a9.65683 9.65683 0 0 1 -6.82844 2.82844 9.65683 9.65683 0 0 1 -6.82842-2.82842l-5.17158-5.17158z" fill="#f9c89b"/><path d="m383.61 173.64-3.03992-18.23-4.57008-27.41-11.36-9.09-65.6-52.48c.85-2.03 1.76-4.04 2.75-6.01a65.88984 65.88984 0 0 1 123.82 18.02l2.93 16.59a70.81035 70.81035 0 0 1 -44.93 78.61z" fill="#b47d4d"/><path d="m392 126.83a41.5106 41.5106 0 0 1 -11.42993 28.58l-4.57007-27.41-11.36-9.09a14.82347 14.82347 0 0 1 27.36 7.92z" fill="#9d6342"/><path d="m352 128 3.90031-7.80063a14.8328 14.8328 0 0 1 13.26687-8.19937 14.8328 14.8328 0 0 1 14.83282 14.8328 41.44521 41.44521 0 0 1 -12.139 29.3062l-1.03256 1.03256a9.65683 9.65683 0 0 1 -6.82844 2.82844 9.65683 9.65683 0 0 1 -6.82842-2.82842l-5.17158-5.17158z" fill="#fbd5b6"/><path d="m459.11 456.91-3.91 39.09h-87.2l-4.99-34.91z" fill="#37a5ca"/><path d="m408 224 11.828 3.94268a88 88 0 0 1 60.172 83.48413v144.57319l-192 32-16-48 144-40v-88z" fill="#91d3ee"/><path d="m272 440-85.79146 21.44787a13.47724 13.47724 0 0 0 -10.20854 13.07485 13.47725 13.47725 0 0 0 13.47725 13.47728h98.52275z" fill="#fbd5b6"/><path d="m383.98 192.88-12.59 18.88a7.99081 7.99081 0 0 1 -5.34 3.45l-18.63013 3.1 4.2301-16.92 8.35003-1.39 10.66992-16z" fill="#f9c89b"/><path d="m416 312v88l-115.56 32.1-5.3-15.13 104.86-29.13v-75.84z" fill="#c1d7e6"/><path d="m416 312v88l-57.8 16.06q-.36-8.265-.32-16.52l42.12-11.7v-75.84z" fill="#37a5ca"/><path d="m152 240h-136v-192h88l48 48z" fill="#91d3ee"/><g fill="#37a5ca"><path d="m104 48v48h48z"/><path d="m40 72h32v16h-32z"/><path d="m40 104h32v16h-32z"/><path d="m56 136h32v16h-32z"/><path d="m104 136h24v16h-24z"/><path d="m40 168h32v16h-32z"/><path d="m88 168h16v16h-16z"/></g></g></svg>