<?xml version="1.0" encoding="utf-8"?>
<!-- Generator: Adobe Illustrator 24.0.1, SVG Export Plug-In . SVG Version: 6.00 Build 0)  -->
<svg version="1.1" id="Layer_1" xmlns="http://www.w3.org/2000/svg" xmlns:xlink="http://www.w3.org/1999/xlink" x="0px" y="0px"
	 viewBox="0 0 201 201" style="enable-background:new 0 0 201 201;" xml:space="preserve">
<style type="text/css">
	.st0{fill:#005973;}
	.st1{fill:url(#Ellipse_10_1_);}
	.st2{fill:none;stroke:#FFFFFF;stroke-width:2;stroke-linecap:round;stroke-linejoin:round;}
	.st3{fill:none;stroke:#FFFFFF;stroke-width:1.94;stroke-linecap:round;stroke-linejoin:round;}
	.st4{fill:none;stroke:#FFFFFF;stroke-width:1.64;stroke-linecap:round;stroke-linejoin:round;}
	.st5{fill:url(#Ellipse_11_1_);stroke:#707070;stroke-miterlimit:10;}
	.st6{opacity:0.35;fill:#005973;enable-background:new    ;}
	.st7{fill:#90DAE8;}
	.st8{fill:none;stroke:#005973;stroke-width:1.8192;stroke-miterlimit:9.9958;}
	.st9{opacity:0.8;}
	.st10{fill:#FFFFFF;}
	.st11{opacity:0.25;fill:#FFFFFF;enable-background:new    ;}
	.st12{fill:url(#Ellipse_14_1_);stroke:#707070;stroke-width:3;stroke-miterlimit:10;}
	.st13{fill:#FFBF10;}
	.st14{fill:none;stroke:#FFFFFF;stroke-width:0.63;stroke-miterlimit:10;}
	.st15{fill:url(#Ellipse_15_1_);stroke:#707070;stroke-width:0.9998;stroke-miterlimit:9.9978;}
	.st16{opacity:0.75;fill:#90DAE8;enable-background:new    ;}
	.st17{opacity:0.25;}
	.st18{fill:url(#Ellipse_16_1_);stroke:#707070;stroke-width:3;stroke-miterlimit:10;}
	.st19{fill:#FF9C00;}
	.st20{opacity:0.35;fill:#FFFFFF;enable-background:new    ;}
	.st21{fill:#808080;}
	.st22{fill:#D2E0E3;}
	.st23{fill:url(#Ellipse_17_1_);stroke:#707070;stroke-width:0.9997;stroke-miterlimit:9.9973;}
	.st24{fill:url(#Ellipse_18_1_);stroke:#707070;stroke-miterlimit:10;}
	.st25{opacity:0.56;fill:#00B1C4;enable-background:new    ;}
	.st26{fill:url(#Ellipse_19_1_);stroke:#707070;stroke-miterlimit:10;}
	.st27{fill:url(#Ellipse_20_1_);stroke:#707070;stroke-miterlimit:10;}
	.st28{fill:#00B1C4;}
	.st29{fill:url(#Ellipse_22_1_);stroke:#707070;stroke-width:1;stroke-miterlimit:10.0005;}
	.st30{opacity:0.44;fill:#005973;enable-background:new    ;}
	.st31{opacity:0.25;fill:#005973;enable-background:new    ;}
	.st32{fill:url(#Ellipse_24_1_);stroke:#707070;stroke-width:3;stroke-miterlimit:10;}
	.st33{fill:url(#Ellipse_25_1_);stroke:#707070;stroke-width:3;stroke-miterlimit:10;}
	.st34{fill:url(#Ellipse_26_1_);stroke:#707070;stroke-width:3;stroke-miterlimit:10;}
	.st35{opacity:0.65;fill:#FFFFFF;enable-background:new    ;}
	.st36{fill:url(#Ellipse_27_1_);stroke:#707070;stroke-miterlimit:10;}
</style>
<rect class="st0" width="201" height="201"/>
<g id="iotAsset_2mdpi" transform="translate(31.573 24.342)">
	
		<image style="overflow:visible;opacity:0.25;" width="199" height="192" xlink:href="13785BDA.png"  transform="matrix(1 0 0 1 -23.573 -20.342)">
	</image>
	<g>
		<g>
			<g id="Layer_2_10_" transform="translate(-31.573 -24.342)">
				<g id="Layer_1_10_" transform="translate(0)">
					
						<linearGradient id="Ellipse_10_1_" gradientUnits="userSpaceOnUse" x1="-438.5" y1="636.6358" x2="-438.5" y2="635.3969" gradientTransform="matrix(100.4997 -100.4997 -100.4997 -100.4997 108100.6484 19962.4336)">
						<stop  offset="0" style="stop-color:#00B1C4"/>
						<stop  offset="6.000000e-02" style="stop-color:#00A6BB"/>
						<stop  offset="0.16" style="stop-color:#0099AF"/>
						<stop  offset="0.26" style="stop-color:#0095AB"/>
						<stop  offset="0.52" style="stop-color:#006E87"/>
						<stop  offset="0.69" style="stop-color:#005973"/>
						<stop  offset="1" style="stop-color:#005973"/>
					</linearGradient>
					<circle id="Ellipse_10_12_" class="st1" cx="100.5" cy="100.5" r="71.1"/>
					<path id="Path_109_12_" class="st2" d="M47.2,148.8c-4.1,8.2-4.4,13.4-2.3,15.1c5.5,4.6,33.8-20.4,63.2-55.9
						s48.6-67.9,43.1-72.5c-1.9-1.5-6.3,0.3-12.5,4.7"/>
					<path id="Path_110_12_" class="st2" d="M49.4,51c-7.2-3-12.1-3.8-13.5-1.9c-4.4,5.8,21.8,33,58.4,60.9s69.8,45.9,74.2,40.1
						c1.6-2.1-1.3-7.1-6.7-13.7"/>
					<path id="Path_111_12_" class="st2" d="M31.9,87c-7.7,1.1-12.3,3-12.6,5.4c-0.8,7.2,35.7,16.9,81.5,21.8s83.5,3,84.2-4.1
						c0.3-2.6-5.7-5.8-13.7-8.7"/>
					<path id="Path_112_12_" class="st3" d="M32.9,120.9C24,115,18.8,108,18.8,100.5c0-7.4,4.9-14.2,13.5-19.9
						c14.6-9.8,39.7-16.3,68.1-16.3c28.7,0,54,6.6,68.6,16.6c8.2,5.7,13,12.4,13,19.6s-4.3,12.7-12.5,18.4"/>
					<path id="Path_113_12_" class="st3" d="M58,158.7c-10.2,0.8-16.8-1.5-21.4-7.3c-12.5-15.6,5.9-51.1,41.1-79.2
						s73.9-38.3,86.4-22.6c4.3,5.4,4.9,13.2,2.4,22.3"/>
					<path id="Path_114_12_" class="st4" d="M88.7,171c3.7,5.5,7.4,8.1,11.8,8.1c14.8,0,26.7-35.2,26.7-78.6s-12-78.6-26.7-78.6
						c-4.1,0-8,2.7-11.4,7.5"/>
					
						<linearGradient id="Ellipse_11_1_" gradientUnits="userSpaceOnUse" x1="-419.5818" y1="622.265" x2="-420.0819" y2="621.3988" gradientTransform="matrix(23.516 0 0 -23.516 9953.0371 14761.9033)">
						<stop  offset="0" style="stop-color:#FFFFFF"/>
						<stop  offset="1" style="stop-color:#F2F6F6"/>
					</linearGradient>
					<circle id="Ellipse_11_12_" class="st5" cx="80.3" cy="138.9" r="11.8"/>
					<rect id="Rectangle_10_12_" x="77.4" y="143.4" class="st0" width="5.8" height="1.4"/>
					<rect id="Rectangle_11_12_" x="77.4" y="132.8" class="st0" width="5.8" height="1.4"/>
					<rect id="Rectangle_12_12_" x="77.4" y="131.1" class="st0" width="5.8" height="1.1"/>
					<rect id="Rectangle_13_12_" x="77.4" y="131.1" class="st6" width="5.8" height="0.3"/>
					<rect id="Rectangle_14_12_" x="77.4" y="143.6" class="st0" width="5.8" height="1.4"/>
					<rect id="Rectangle_15_12_" x="77.4" y="145.6" class="st0" width="5.8" height="1.1"/>
					<rect id="Rectangle_16_12_" x="77.4" y="146.4" class="st6" width="5.8" height="0.3"/>
					<circle id="Ellipse_12_12_" class="st7" cx="80.3" cy="138.8" r="3.9"/>
					<circle id="Ellipse_13_12_" class="st8" cx="80.3" cy="138.8" r="5"/>
					<g id="Group_2_9_" transform="translate(77.791 137.452)" class="st9">
						<path id="Path_118_12_" class="st10" d="M2.5,2.5c0.2,0,0.4,0.1,0.6,0.3l0.4-0.3C3.2,2.2,2.8,2,2.5,2c-0.4,0-0.7,0.2-1,0.4
							l0.4,0.3C2,2.6,2.2,2.5,2.5,2.5z"/>
						<path id="Path_119_12_" class="st10" d="M2.5,1.5c0.5,0,1,0.2,1.3,0.6l0.4-0.3C3.4,0.9,1.9,0.7,1,1.6C0.9,1.6,0.8,1.7,0.8,1.8
							l0.4,0.3C1.5,1.7,2,1.5,2.5,1.5L2.5,1.5z"/>
						<path id="Path_120_12_" class="st10" d="M2.5,0.5c0.8,0,1.6,0.4,2.1,1L5,1.2C3.8-0.2,1.7-0.4,0.3,0.8C0.2,0.9,0.1,1,0,1.1
							l0.4,0.3C0.9,0.8,1.7,0.5,2.5,0.5z"/>
					</g>
					<path id="Path_121_12_" class="st11" d="M83.6,135l-6.6,7.5c2.1,1.8,5.2,1.6,7.1-0.4C85.8,140,85.6,136.9,83.6,135L83.6,135z"
						/>
					
						<linearGradient id="Ellipse_14_1_" gradientUnits="userSpaceOnUse" x1="-419.5818" y1="622.265" x2="-420.0819" y2="621.3988" gradientTransform="matrix(23.516 0 0 -23.516 10048.9492 14710.8486)">
						<stop  offset="0" style="stop-color:#FFFFFF"/>
						<stop  offset="1" style="stop-color:#F2F6F6"/>
					</linearGradient>
					<circle id="Ellipse_14_12_" class="st12" cx="176.2" cy="87.9" r="11.8"/>
					<path id="Path_122_12_" class="st13" d="M180.9,85.2c-0.1-2.6-2.3-4.7-4.9-4.6c-2.5,0.1-4.5,2.1-4.6,4.6c0,1.6,1.7,4.2,3.1,6
						V93h3.3v-1.7C177.9,91.2,180.9,87.3,180.9,85.2z"/>
					<path id="Path_123_12_" class="st11" d="M176.2,80.4V93h1.7v-1.7c0,0,3.1-3.9,3.1-6C181,82.6,178.8,80.4,176.2,80.4
						C176.2,80.4,176.2,80.4,176.2,80.4z"/>
					<path id="Path_124_12_" class="st13" d="M177.3,95.3h-2.2l-0.5-1.3h3.3L177.3,95.3z"/>
					<path id="Path_125_12_" class="st14" d="M176.4,92.9l1-5.1c0.2-0.7-0.3-1.4-1.1-1.6c-0.1,0-0.2,0-0.3,0l0,0
						c-0.7,0-1.3,0.6-1.4,1.3c0,0.1,0,0.2,0,0.3l1.1,5.1L176.4,92.9"/>
					<path id="Path_126_12_" class="st14" d="M176.5,93.1l1.3-6.3c0.2-0.9-0.4-1.8-1.3-2c-0.1,0-0.2,0-0.3,0l0,0
						c-0.9,0-1.7,0.7-1.7,1.7c0,0.1,0,0.2,0,0.3l1.3,6.3L176.5,93.1"/>
					<rect id="Rectangle_17_12_" x="174.5" y="93.3" class="st13" width="3.3" height="0.5"/>
					
						<linearGradient id="Ellipse_15_1_" gradientUnits="userSpaceOnUse" x1="-453.8448" y1="619.6232" x2="-454.3449" y2="618.757" gradientTransform="matrix(3.5979 -23.2338 -23.2338 -3.5979 16169.6729 -8184.8403)">
						<stop  offset="0" style="stop-color:#FFFFFF"/>
						<stop  offset="1" style="stop-color:#F2F6F6"/>
					</linearGradient>
					<circle id="Ellipse_15_12_" class="st15" cx="149.7" cy="137.7" r="11.8"/>
					<path id="Path_127_12_" class="st7" d="M157.3,142.9h-14l-0.4-0.4V140c0.2-0.2,0.2-0.2,0.4-0.4h14l0.4,0.4v2.5L157.3,142.9z"/>
					<path id="Path_128_12_" class="st10" d="M145.4,141.3c0,0.2-0.2,0.4-0.4,0.4s-0.4-0.2-0.4-0.4s0.2-0.4,0.4-0.4c0,0,0,0,0,0
						C145.2,140.9,145.4,141.1,145.4,141.3z"/>
					<path id="Path_129_12_" class="st10" d="M147.5,141.3c0,0.2-0.2,0.4-0.4,0.4s-0.4-0.2-0.4-0.4s0.2-0.4,0.4-0.4h0
						C147.3,140.9,147.5,141.1,147.5,141.3z"/>
					<path id="Path_130_12_" class="st10" d="M149.6,141.3c0,0.2-0.2,0.4-0.4,0.4s-0.4-0.2-0.4-0.4c0-0.2,0.2-0.4,0.4-0.4
						S149.6,141.1,149.6,141.3C149.6,141.3,149.6,141.3,149.6,141.3z"/>
					<path id="Path_131_12_" class="st10" d="M151.7,141.3c0,0.2-0.2,0.4-0.4,0.4s-0.4-0.2-0.4-0.4s0.2-0.4,0.4-0.4
						c0.1,0,0.2,0,0.3,0.1C151.7,141.1,151.7,141.2,151.7,141.3z"/>
					<path id="Path_132_12_" class="st10" d="M153.8,141.3c0,0.2-0.2,0.4-0.4,0.4s-0.4-0.2-0.4-0.4c0-0.2,0.2-0.4,0.4-0.4
						C153.6,140.9,153.8,141.1,153.8,141.3z"/>
					<path id="Path_133_12_" class="st13" d="M155.9,141.3c0,0.2-0.2,0.4-0.4,0.4s-0.4-0.2-0.4-0.4s0.2-0.4,0.4-0.4c0,0,0,0,0,0
						C155.7,140.9,155.9,141.1,155.9,141.3z"/>
					<path id="Path_134_12_" class="st16" d="M142.9,142.5l0.4,0.4h14l0.4-0.4H142.9z"/>
					<path id="Path_135_12_" class="st16" d="M157.6,140l-0.4-0.4h-14c-0.2,0.2-0.2,0.2-0.4,0.4H157.6z"/>
					<path id="Path_136_12_" class="st11" d="M143.2,142.9h14l0.4-0.4V140l-0.2-0.2l-14.3,3L143.2,142.9z"/>
					<rect id="Rectangle_18_12_" x="144.5" y="136.8" class="st7" width="1.6" height="2.8"/>
					<path id="Path_137_12_" class="st7" d="M145.7,136.8H145l0.3-2.8h0.2L145.7,136.8z"/>
					<path id="Path_141_12_" class="st7" d="M146.2,132.8c0.2,0.2,0.3,0.4,0.3,0.7h0.6c0-0.8-0.7-1.5-1.6-1.4c-0.1,0-0.1,0-0.2,0
						l0.1,0.6C145.7,132.6,146,132.7,146.2,132.8z"/>
					<path id="Path_142_12_" class="st7" d="M146.9,131.9c0.5,0.4,0.7,0.9,0.8,1.5h0.6c0-1.4-1.3-2.6-2.7-2.5c-0.1,0-0.3,0-0.4,0
						l0.1,0.6C145.8,131.4,146.4,131.6,146.9,131.9L146.9,131.9z"/>
					<path id="Path_143_12_" class="st7" d="M147.6,131c0.7,0.6,1.2,1.5,1.2,2.4h0.6c-0.1-2.1-1.9-3.7-4-3.7c-0.2,0-0.4,0-0.5,0.1
						l0.1,0.6C145.9,130.2,146.9,130.4,147.6,131L147.6,131z"/>
					<g id="Group_3_9_" transform="translate(145.443 130.559)" class="st17">
						<path id="Path_144_12_" class="st10" d="M2.2,0.5L2.2,0.5L1.8,0.9l0,0c0.6,0.5,1,1.2,1,1.9l0.6,0C3.3,1.9,2.9,1,2.2,0.5z"/>
						<path id="Path_145_12_" class="st10" d="M1.5,1.4L1.5,1.4L1.1,1.8l0,0c0.3,0.3,0.5,0.7,0.6,1.1h0.6C2.2,2.3,1.9,1.8,1.5,1.4z"
							/>
						<path id="Path_146_12_" class="st10" d="M0.7,2.2L0.7,2.2L0.2,3l0,0l0.9,0C1.1,2.7,1,2.4,0.7,2.2z"/>
						<path id="Path_147_12_" class="st10" d="M1.1,1.8L1.1,1.8L0.8,2.3l0,0C1,2.4,1.1,2.7,1.1,2.9h0.6C1.7,2.5,1.5,2.1,1.1,1.8z"/>
						<path id="Path_148_12_" class="st10" d="M1.8,0.9L1.8,0.9L1.5,1.4l0,0c0.5,0.4,0.7,0.9,0.8,1.5h0.6C2.8,2.1,2.4,1.4,1.8,0.9z"
							/>
						<path id="Path_149_12_" class="st10" d="M2.6,0L2.6,0L2.2,0.5l0,0C2.9,1,3.4,1.9,3.4,2.8H4C3.9,1.7,3.4,0.7,2.6,0L2.6,0z"/>
						<path id="Path_150_12_" class="st10" d="M0,2.1L0.2,3l0.6-0.7C0.5,2.1,0.3,2,0,2.1z"/>
					</g>
					<path id="Path_151_12_" class="st7" d="M145.6,133.9c0,0.1-0.1,0.2-0.2,0.2c-0.1,0-0.2-0.1-0.2-0.2c0-0.1,0.1-0.2,0.2-0.2l0,0
						C145.5,133.7,145.6,133.8,145.6,133.9z"/>
					<path id="Path_152_12_" class="st11" d="M144.5,139.6l1.6-2.8v2.8H144.5z"/>
					<rect id="Rectangle_19_12_" x="144.5" y="139.4" class="st16" width="1.6" height="0.2"/>
					<path id="Path_153_12_" class="st16" d="M145.7,136.8H145l0-0.1L145.7,136.8L145.7,136.8z"/>
					
						<linearGradient id="Ellipse_16_1_" gradientUnits="userSpaceOnUse" x1="-438.2499" y1="614.5323" x2="-438.7501" y2="613.6662" gradientTransform="matrix(16.6283 -16.6283 -16.6283 -16.6283 17545.5938 3048.5132)">
						<stop  offset="0" style="stop-color:#FFFFFF"/>
						<stop  offset="1" style="stop-color:#F2F6F6"/>
					</linearGradient>
					<circle id="Ellipse_16_12_" class="st18" cx="42.6" cy="128.6" r="11.8"/>
					<path id="Rectangle_20_12_" class="st19" d="M38.7,121.6h7.8c0.7,0,1.2,0.5,1.2,1.2v11.6c0,0.7-0.5,1.2-1.2,1.2h-7.8
						c-0.7,0-1.2-0.5-1.2-1.2v-11.6C37.5,122.1,38.1,121.6,38.7,121.6z"/>
					<path id="Path_154_12_" class="st20" d="M47.6,121.8l-9.9,13.6c0.1,0.1,0.3,0.2,0.4,0.2h9c0.4,0,0.6-0.3,0.6-0.6v-12.8
						C47.7,122,47.7,121.9,47.6,121.8z"/>
					<path id="Path_155_12_" class="st21" d="M43.2,134.5c0,0.3-0.3,0.6-0.6,0.6s-0.6-0.3-0.6-0.6c0-0.3,0.3-0.6,0.6-0.6
						C43,133.9,43.2,134.1,43.2,134.5L43.2,134.5z"/>
					<rect id="Rectangle_21_12_" x="38.7" y="122.6" class="st10" width="7.8" height="10.7"/>
					<rect id="Rectangle_22_12_" x="43.3" y="128.9" class="st22" width="2.2" height="2.6"/>
					<rect id="Rectangle_23_12_" x="39.8" y="124.3" class="st22" width="5.7" height="0.3"/>
					<rect id="Rectangle_24_12_" x="39.8" y="125.1" class="st22" width="5.7" height="0.3"/>
					<rect id="Rectangle_25_12_" x="39.8" y="125.9" class="st22" width="5.7" height="0.3"/>
					<rect id="Rectangle_26_12_" x="39.8" y="126.6" class="st22" width="5.7" height="0.3"/>
					<rect id="Rectangle_27_12_" x="39.8" y="127.4" class="st22" width="5.7" height="0.3"/>
					<rect id="Rectangle_28_12_" x="39.8" y="128.2" class="st22" width="5.7" height="0.3"/>
					<rect id="Rectangle_29_12_" x="39.8" y="128.9" class="st22" width="3.1" height="0.3"/>
					<rect id="Rectangle_30_12_" x="39.8" y="129.7" class="st22" width="3.1" height="0.3"/>
					<rect id="Rectangle_31_12_" x="39.8" y="130.5" class="st22" width="3.1" height="0.3"/>
					<rect id="Rectangle_32_12_" x="39.8" y="131.3" class="st22" width="3.1" height="0.3"/>
					
						<linearGradient id="Ellipse_17_1_" gradientUnits="userSpaceOnUse" x1="-453.4539" y1="619.3412" x2="-453.954" y2="618.475" gradientTransform="matrix(4.0212 -23.1633 -23.1633 -4.0212 16275.4375 -7857.5962)">
						<stop  offset="0" style="stop-color:#FFFFFF"/>
						<stop  offset="1" style="stop-color:#F2F6F6"/>
					</linearGradient>
					<circle id="Ellipse_17_12_" class="st23" cx="115.1" cy="162.9" r="11.8"/>
					<path id="Path_156_12_" class="st13" d="M106.9,165c0,0,0-0.1,0-0.1c-0.1-0.8,0.5-1.5,1.3-1.5c0,0,0,0,0,0c0.1,0,0.3,0,0.4,0
						c0.4-1.2,1.6-2,2.9-2c0.3,0,0.7,0.1,1,0.2c1.1-2.1,3.7-2.9,5.8-1.8c1.1,0.6,1.9,1.6,2.2,2.8c1.4,0,2.6,1.1,2.8,2.6L106.9,165z"
						/>
					<path id="Path_157_12_" class="st11" d="M108.2,163.4c0.1,0,0.3,0,0.4,0c0.4-1.2,1.6-2,2.9-2c0.3,0,0.7,0.1,1,0.2
						c0.6-1.2,1.7-2,3.1-2.3v5.8h-8.6c0,0,0-0.1,0-0.1C106.8,164.2,107.4,163.5,108.2,163.4C108.2,163.4,108.2,163.4,108.2,163.4
						L108.2,163.4z"/>
					
						<linearGradient id="Ellipse_18_1_" gradientUnits="userSpaceOnUse" x1="-438.2499" y1="614.5323" x2="-438.7501" y2="613.6662" gradientTransform="matrix(16.6283 -16.6283 -16.6283 -16.6283 17652.4922 2961.3972)">
						<stop  offset="0" style="stop-color:#FFFFFF"/>
						<stop  offset="1" style="stop-color:#F2F6F6"/>
					</linearGradient>
					<circle id="Ellipse_18_12_" class="st24" cx="149.5" cy="41.5" r="11.8"/>
					<rect id="Rectangle_33_12_" x="144.8" y="39.6" class="st0" width="9.5" height="7.4"/>
					<path id="Path_158_12_" class="st11" d="M144.8,47l9.5-7.4V47H144.8z"/>
					<rect id="Rectangle_34_12_" x="144.8" y="39.6" class="st25" width="9.5" height="0.6"/>
					<path id="Path_159_12_" class="st0" d="M149.5,34.9l5.9,4.9h-11.8L149.5,34.9z"/>
					<rect id="Rectangle_35_12_" x="152.1" y="36.1" class="st0" width="1.2" height="1.9"/>
					<rect id="Rectangle_36_12_" x="148.5" y="43.8" class="st10" width="2" height="3.1"/>
					
						<linearGradient id="Ellipse_19_1_" gradientUnits="userSpaceOnUse" x1="-439.7513" y1="614.5751" x2="-440.2514" y2="613.7089" gradientTransform="matrix(15.6558 -17.547 -17.547 -15.6558 17778.498 2010.3004)">
						<stop  offset="0" style="stop-color:#FFFFFF"/>
						<stop  offset="1" style="stop-color:#F2F6F6"/>
					</linearGradient>
					<circle id="Ellipse_19_12_" class="st26" cx="113.6" cy="116.1" r="11.8"/>
					<path id="Path_160_12_" class="st19" d="M113.6,109.5c-2.8,0-5,2.2-5,5l0,0c0,2.8,5,8.2,5,8.2s5-5.4,5-8.2
						C118.6,111.8,116.3,109.5,113.6,109.5L113.6,109.5z M113.6,117.4c-1.6,0-2.9-1.3-2.9-2.9c0-1.6,1.3-2.9,2.9-2.9
						s2.9,1.3,2.9,2.9c0,0,0,0,0,0C116.4,116.1,115.1,117.4,113.6,117.4L113.6,117.4z"/>
					<path id="Path_161_12_" class="st11" d="M113.6,109.5v2.2c1.6,0.1,2.8,1.4,2.7,3c-0.1,1.5-1.3,2.7-2.7,2.7v5.3c0,0,5-5.4,5-8.2
						C118.6,111.8,116.3,109.5,113.6,109.5L113.6,109.5z"/>
					
						<linearGradient id="Ellipse_20_1_" gradientUnits="userSpaceOnUse" x1="-441.2386" y1="614.702" x2="-441.7387" y2="613.8359" gradientTransform="matrix(14.6391 -18.4038 -18.4038 -14.6391 17895.1191 950.8531)">
						<stop  offset="0" style="stop-color:#FFFFFF"/>
						<stop  offset="1" style="stop-color:#F2F6F6"/>
					</linearGradient>
					<circle id="Ellipse_20_12_" class="st27" cx="127.3" cy="83.6" r="11.8"/>
					<path id="Path_165_12_" class="st7" d="M130.5,80.7c0.1,0.3,0.1,0.7-0.1,1l0.7,0.4c0.3-0.5,0.4-1.1,0.2-1.7
						c-0.2-0.6-0.6-1-1.1-1.2l-0.3,0.7C130.1,80.1,130.4,80.4,130.5,80.7L130.5,80.7z"/>
					<path id="Path_166_12_" class="st7" d="M131.9,80.2c0.3,0.8,0.2,1.6-0.2,2.3l0.7,0.4c1-1.7,0.4-3.8-1.2-4.8
						c-0.1-0.1-0.3-0.2-0.5-0.2l-0.3,0.7C131.1,78.9,131.6,79.5,131.9,80.2z"/>
					<path id="Path_167_12_" class="st7" d="M133.4,79.7c0.4,1.2,0.3,2.5-0.4,3.5l0.7,0.4c1.4-2.4,0.6-5.5-1.8-6.9
						c-0.2-0.1-0.4-0.2-0.6-0.3l-0.3,0.7C132.1,77.6,133,78.5,133.4,79.7z"/>
					<g id="Group_4_9_" transform="translate(129.296 79.474)" class="st17">
						<path id="Path_168_12_" class="st10" d="M4.1,0.3L4.1,0.3L3.4,0.5l0,0c0.3,1,0.2,2-0.3,2.9l0.7,0.4C4.3,2.7,4.5,1.4,4.1,0.3z"
							/>
						<path id="Path_169_12_" class="st10" d="M2.6,0.7L2.6,0.7L1.9,1l0,0C2.1,1.5,2,2.1,1.7,2.6L2.3,3C2.7,2.3,2.8,1.5,2.6,0.7z"/>
						<path id="Path_170_12_" class="st10" d="M1.2,1.2L1.2,1.2L0,1.6l0,0l1,0.6C1.2,1.9,1.3,1.6,1.2,1.2z"/>
						<path id="Path_171_12_" class="st10" d="M1.9,1L1.9,1L1.2,1.2l0,0c0.1,0.3,0.1,0.7-0.1,1l0.7,0.4C2,2.1,2.1,1.5,1.9,1z"/>
						<path id="Path_172_12_" class="st10" d="M3.3,0.5L3.3,0.5L2.6,0.7l0,0C2.9,1.5,2.8,2.3,2.4,3L3,3.4C3.6,2.5,3.7,1.5,3.3,0.5z"
							/>
						<path id="Path_173_12_" class="st10" d="M4.8,0L4.8,0L4.1,0.2l0,0c0.4,1.2,0.3,2.5-0.4,3.5l0.7,0.4C5.1,2.9,5.3,1.4,4.8,0z"/>
						<path id="Path_174_12_" class="st10" d="M0.5,0.5L0,1.6l1.2-0.4C1.1,0.9,0.8,0.6,0.5,0.5z"/>
					</g>
					<path id="Path_175_12_" class="st28" d="M128.1,83.8c0.9-0.4,1.3-1.4,0.9-2.4c-0.4-0.9-1.4-1.3-2.4-0.9c0,0,0,0-0.1,0
						L128.1,83.8z"/>
					<path id="Path_176_12_" class="st28" d="M125.3,90.8h-5.2l1-4.5h3.2L125.3,90.8z"/>
					<path id="Path_177_12_" class="st11" d="M124.3,86.3l-4.2,4.5h5.2L124.3,86.3z"/>
					<path id="Path_178_12_" class="st6" d="M125.3,90.8h-5.2l0.1-0.4h5L125.3,90.8z"/>
					<path id="Path_179_12_" class="st28" d="M124.6,77.4c-2.6,1.3-3.6,4.4-2.4,7c1.2,2.5,4.1,3.6,6.7,2.5L124.6,77.4z"/>
					<path id="Path_180_12_" class="st28" d="M124.4,85.2c0,1.2-1,2.1-2.1,2.1c-1.2,0-2.1-1-2.1-2.1s1-2.1,2.1-2.1
						c0.6,0,1.1,0.2,1.5,0.6C124.2,84.1,124.4,84.6,124.4,85.2z"/>
					<circle id="Ellipse_21_12_" class="st6" cx="122.3" cy="85.2" r="1.5"/>
					
						<linearGradient id="Ellipse_22_1_" gradientUnits="userSpaceOnUse" x1="-453.6685" y1="619.504" x2="-454.1685" y2="618.6378" gradientTransform="matrix(3.7861 -23.2103 -23.2103 -3.7861 16156.5225 -8103.5278)">
						<stop  offset="0" style="stop-color:#FFFFFF"/>
						<stop  offset="1" style="stop-color:#F2F6F6"/>
					</linearGradient>
					<circle id="Ellipse_22_12_" class="st29" cx="69.1" cy="88.2" r="11.8"/>
					<path id="Path_181_12_" class="st0" d="M75.3,88.9h-7.7V85h9.6L75.3,88.9z"/>
					<circle id="Ellipse_23_12_" class="st0" cx="75.5" cy="86.9" r="1.7"/>
					<rect id="Rectangle_37_12_" x="63.6" y="86.5" class="st0" width="3" height="1"/>
					<rect id="Rectangle_38_12_" x="63.6" y="86.9" class="st6" width="3" height="0.5"/>
					<path id="Path_182_12_" class="st0" d="M69,86.9c0,1.1-0.9,2-2,2c-1.1,0-2-0.9-2-2s0.9-2,2-2c0,0,0,0,0,0
						C68.1,84.9,69,85.8,69,86.9z"/>
					
						<rect id="Rectangle_39_12_" x="60.6" y="89.2" transform="matrix(0.1338 -0.991 0.991 0.1338 -34.2261 140.2654)" class="st0" width="5" height="1.1"/>
					
						<rect id="Rectangle_40_12_" x="61.1" y="89.2" transform="matrix(0.1302 -0.9915 0.9915 0.1302 -33.3787 140.9447)" class="st6" width="5" height="0.5"/>
					<rect id="Rectangle_41_12_" x="61" y="91.9" class="st0" width="3.7" height="1"/>
					<rect id="Rectangle_42_12_" x="60.5" y="93" class="st0" width="4.5" height="0.4"/>
					<rect id="Rectangle_43_12_" x="61" y="92.8" class="st30" width="3.7" height="0.2"/>
					<path id="Path_183_12_" class="st11" d="M61,93l3.7-1v1H61z"/>
					<rect id="Rectangle_44_12_" x="66.2" y="84.3" class="st0" width="1.6" height="5.2"/>
					<path id="Path_184_12_" class="st11" d="M66.2,89.5l1.6-5.2v5.2H66.2z"/>
					<rect id="Rectangle_45_12_" x="67.7" y="85" class="st6" width="0.3" height="3.9"/>
					<path id="Path_185_12_" class="st31" d="M66.2,88.8L66.2,88.8l-0.1-3.7l0.1,0V88.8z"/>
					<path id="Path_186_12_" class="st0" d="M64.4,86.9c0,0.5-0.4,0.9-0.9,0.9c-0.5,0-0.9-0.4-0.9-0.9c0-0.5,0.4-0.9,0.9-0.9
						c0,0,0,0,0,0C64,86.1,64.4,86.5,64.4,86.9z"/>
					<path id="Path_187_12_" class="st6" d="M64,86.9c0,0.3-0.2,0.5-0.5,0.5c-0.3,0-0.5-0.2-0.5-0.5c0-0.3,0.2-0.5,0.5-0.5
						c0,0,0,0,0,0C63.8,86.4,64,86.7,64,86.9C64,86.9,64,86.9,64,86.9z"/>
					<path id="Path_188_12_" class="st11" d="M75.3,88.9h-5.8l1.6-3.9h6L75.3,88.9z"/>
					
						<linearGradient id="Ellipse_24_1_" gradientUnits="userSpaceOnUse" x1="-419.5818" y1="622.265" x2="-420.0819" y2="621.3988" gradientTransform="matrix(23.516 0 0 -23.516 9901.8623 14707.2734)">
						<stop  offset="0" style="stop-color:#FFFFFF"/>
						<stop  offset="1" style="stop-color:#F2F6F6"/>
					</linearGradient>
					<circle id="Ellipse_24_12_" class="st32" cx="29.1" cy="84.3" r="11.8"/>
					<rect id="Rectangle_46_12_" x="27.3" y="78.4" class="st28" width="3.6" height="4.8"/>
					<rect id="Rectangle_47_12_" x="27.3" y="82.8" class="st25" width="3.6" height="0.4"/>
					<rect id="Rectangle_48_12_" x="29.1" y="78.4" class="st11" width="1.8" height="4.8"/>
					<path id="Path_189_12_" class="st28" d="M29.1,86.9l-3.7-3.7h7.5L29.1,86.9z"/>
					<path id="Path_190_12_" class="st11" d="M29.1,86.9l3.7-3.7h-3.7V86.9z"/>
					<path id="Path_191_12_" class="st0" d="M34.5,90.2H23.7v-3.9h1.4v2.5h8.1v-2.5h1.4L34.5,90.2z"/>
					<path id="Path_192_12_" class="st11" d="M24.3,86.3v3.2h9.5v-3.2h-0.7v2.5h-8.1v-2.5H24.3z"/>
					
						<linearGradient id="Ellipse_25_1_" gradientUnits="userSpaceOnUse" x1="-438.2499" y1="614.5323" x2="-438.7501" y2="613.6662" gradientTransform="matrix(16.6283 -16.6283 -16.6283 -16.6283 17592.6582 2945.2253)">
						<stop  offset="0" style="stop-color:#FFFFFF"/>
						<stop  offset="1" style="stop-color:#F2F6F6"/>
					</linearGradient>
					<circle id="Ellipse_25_12_" class="st33" cx="89.7" cy="25.3" r="11.8"/>
					
						<linearGradient id="Ellipse_26_1_" gradientUnits="userSpaceOnUse" x1="-452.3923" y1="618.6397" x2="-452.8924" y2="617.7736" gradientTransform="matrix(5.1339 -22.9488 -22.9488 -5.1339 16564.2949 -7170.5166)">
						<stop  offset="0" style="stop-color:#FFFFFF"/>
						<stop  offset="1" style="stop-color:#F2F6F6"/>
					</linearGradient>
					<circle id="Ellipse_26_12_" class="st34" cx="53.4" cy="43.3" r="11.8"/>
					<rect id="Rectangle_49_12_" x="83.2" y="20" class="st28" width="13" height="8.4"/>
					<rect id="Rectangle_50_12_" x="83.2" y="28.2" class="st25" width="13" height="0.2"/>
					<rect id="Rectangle_51_12_" x="84.2" y="21.3" class="st10" width="11" height="6.6"/>
					<rect id="Rectangle_52_12_" x="82.5" y="28.5" class="st7" width="14.4" height="1.1"/>
					<path id="Path_193_12_" class="st21" d="M89.9,20.6c0,0.1-0.1,0.2-0.2,0.2s-0.2-0.1-0.2-0.2c0-0.1,0.1-0.2,0.2-0.2l0,0
						C89.8,20.5,89.9,20.6,89.9,20.6C89.9,20.6,89.9,20.6,89.9,20.6z"/>
					<rect id="Rectangle_53_12_" x="85.4" y="22.3" class="st22" width="3.3" height="2.1"/>
					<rect id="Rectangle_54_12_" x="85.4" y="24.7" class="st22" width="3.3" height="0.3"/>
					<rect id="Rectangle_55_12_" x="85.4" y="25.3" class="st22" width="3.3" height="0.3"/>
					<rect id="Rectangle_56_12_" x="85.4" y="25.9" class="st22" width="3.3" height="0.3"/>
					<rect id="Rectangle_57_12_" x="85.4" y="26.5" class="st22" width="3.3" height="0.3"/>
					<rect id="Rectangle_58_12_" x="89.5" y="22.3" class="st22" width="4.5" height="4.5"/>
					<rect id="Rectangle_59_12_" x="82.5" y="28.5" class="st35" width="14.4" height="0.3"/>
					<path id="Path_194_12_" class="st11" d="M83.2,28.5l13-8.4v8.4H83.2z"/>
					<path id="Path_195_12_" class="st13" d="M46.9,39.2v8.2l4.7-4.5L46.9,39.2z"/>
					<path id="Path_196_12_" class="st13" d="M59.9,47.3v-8.2l-4.7,3.6L59.9,47.3z"/>
					<path id="Path_197_12_" class="st13" d="M53.4,44.2L52,43.1l-4.7,4.5h12.2l-4.7-4.5L53.4,44.2z"/>
					<path id="Path_198_12_" class="st13" d="M59.4,38.9l-4.6,3.5l-0.2,0.2l-0.2,0.2l-1,0.8l-1-0.8l-0.2-0.2L52,42.4l-4.6-3.5H59.4z
						"/>
					<rect id="Rectangle_60_12_" x="53.4" y="38.9" class="st11" width="6.5" height="8.8"/>
					
						<linearGradient id="Ellipse_27_1_" gradientUnits="userSpaceOnUse" x1="-419.5818" y1="622.265" x2="-420.0819" y2="621.3988" gradientTransform="matrix(23.516 0 0 -23.516 9967.6006 14684.1084)">
						<stop  offset="0" style="stop-color:#FFFFFF"/>
						<stop  offset="1" style="stop-color:#F2F6F6"/>
					</linearGradient>
					<circle id="Ellipse_27_12_" class="st36" cx="94.8" cy="61.1" r="11.8"/>
					<path id="Path_202_12_" class="st13" d="M95.1,64.3c0.7,0,1.4,0.3,1.9,0.9l1.2-1.1c-1.5-1.7-4.1-1.9-5.8-0.3
						c-0.1,0.1-0.3,0.3-0.4,0.4l1.2,1C93.7,64.6,94.4,64.3,95.1,64.3z"/>
					<path id="Path_203_12_" class="st13" d="M95.1,61.2c1.6,0,3.2,0.7,4.3,1.9l1.2-1c-2.6-3-7.2-3.3-10.2-0.6
						c-0.3,0.2-0.5,0.5-0.7,0.7l1.2,1C91.9,61.9,93.5,61.2,95.1,61.2L95.1,61.2z"/>
					<path id="Path_204_12_" class="st13" d="M95.1,58c2.6,0,5,1.1,6.7,3l1.2-1c-3.8-4.3-10.4-4.7-14.7-0.9c-0.4,0.3-0.7,0.7-1,1
						l1.2,1C90.1,59.1,92.5,58,95.1,58z"/>
					<g id="Group_5_9_" transform="translate(93.23 56.355)" class="st17">
						<path id="Path_205_12_" class="st10" d="M1.8,1.6L1.8,1.6v1.6l0,0c2.1,0,4.1,0.9,5.5,2.4l1.2-1C6.8,2.7,4.4,1.6,1.8,1.6
							L1.8,1.6z"/>
						<path id="Path_206_12_" class="st10" d="M1.9,4.8L1.9,4.8v1.5l0,0c1.2,0,2.3,0.5,3.1,1.4l1.1-1C5.1,5.5,3.5,4.8,1.9,4.8z"/>
						<path id="Path_207_12_" class="st10" d="M1.9,7.9L1.9,7.9l0,2.5l0,0l1.9-1.7C3.3,8.2,2.6,7.9,1.9,7.9z"/>
						<path id="Path_208_12_" class="st10" d="M1.9,6.3L1.9,6.3v1.6l0,0c0.7,0,1.4,0.3,1.9,0.9L5,7.7C4.2,6.8,3.1,6.3,1.9,6.3z"/>
						<path id="Path_209_12_" class="st10" d="M1.9,3.2L1.9,3.2v1.6l0,0c1.6,0,3.2,0.7,4.3,1.9l1.2-1C6,4.1,4,3.2,1.9,3.2L1.9,3.2z"
							/>
						<path id="Path_210_12_" class="st10" d="M1.8,0L1.8,0v1.6l0,0c2.6,0,5,1.1,6.7,3l1.2-1C7.7,1.3,4.8,0,1.8,0z"/>
						<path id="Path_211_12_" class="st10" d="M0,8.8l1.9,1.6l0-2.5C1.2,7.9,0.5,8.3,0,8.8z"/>
					</g>
					<circle id="Ellipse_28_12_" class="st19" cx="116.7" cy="37.5" r="2.5"/>
					<path id="Path_212_12_" class="st13" d="M88.4,103.3c0.9,0.5,1.3,1.6,0.8,2.6c-0.5,0.9-1.6,1.3-2.6,0.8
						c-0.9-0.5-1.3-1.6-0.8-2.6c0.2-0.4,0.6-0.8,1.1-0.9C87.5,103,88,103,88.4,103.3z"/>
					<path id="Path_213_12_" class="st13" d="M154.9,71.2c0.9,0.5,1.3,1.6,0.8,2.6c-0.5,0.9-1.6,1.3-2.6,0.8
						c-0.9-0.5-1.3-1.6-0.8-2.6c0,0,0,0,0,0C152.8,71.1,153.9,70.7,154.9,71.2z"/>
					<path id="Path_214_12_" class="st19" d="M66.7,65.4c0.9,0.5,1.3,1.6,0.8,2.6c-0.5,0.9-1.6,1.3-2.6,0.8
						c-0.9-0.5-1.3-1.6-0.8-2.6C64.6,65.2,65.7,64.9,66.7,65.4C66.7,65.4,66.7,65.4,66.7,65.4z"/>
					<path id="Path_215_12_" class="st13" d="M47.1,103.4c0.9,0.5,1.3,1.6,0.8,2.6c-0.5,0.9-1.6,1.3-2.6,0.8
						c-0.9-0.5-1.3-1.6-0.8-2.6c0.2-0.4,0.6-0.8,1.1-0.9C46.1,103.1,46.6,103.2,47.1,103.4z"/>
					<path id="Path_216_12_" class="st28" d="M123.6,141.7c0.9,0.5,1.3,1.6,0.8,2.6c-0.5,0.9-1.6,1.3-2.6,0.8
						c-0.9-0.5-1.3-1.6-0.8-2.6c0.2-0.4,0.6-0.8,1.1-0.9C122.7,141.5,123.2,141.5,123.6,141.7z"/>
					<path id="Path_217_12_" class="st19" d="M152.9,115.2c0.9,0.5,1.3,1.6,0.8,2.6s-1.6,1.3-2.6,0.8s-1.3-1.6-0.8-2.6c0,0,0,0,0,0
						C150.8,115,151.9,114.7,152.9,115.2z"/>
					<path id="Path_218_12_" class="st13" d="M64.4,153c0.9,0.5,1.3,1.6,0.8,2.6c-0.5,0.9-1.6,1.3-2.6,0.8c-0.9-0.5-1.3-1.6-0.8-2.6
						c0,0,0,0,0,0C62.3,152.8,63.5,152.5,64.4,153z"/>
				</g>
			</g>
		</g>
	</g>
</g>
</svg>
