<?xml version="1.0" encoding="utf-8"?>
<!-- Generator: Adobe Illustrator 24.0.1, SVG Export Plug-In . SVG Version: 6.00 Build 0)  -->
<svg version="1.1" id="Layer_5" xmlns="http://www.w3.org/2000/svg" xmlns:xlink="http://www.w3.org/1999/xlink" x="0px" y="0px"
	 viewBox="0 0 512 512" style="enable-background:new 0 0 512 512;" xml:space="preserve">
<style type="text/css">
	.st0{fill:#FFC729;}
	.st1{fill:#969FAA;}
	.st2{fill:#AAB2BD;}
	.st3{fill:#CCD1D9;}
	.st4{fill:#FF826E;}
	.st5{fill:#69D6F4;}
	.st6{fill:#E6E9ED;}
	.st7{fill:#FFEAA7;}
	.st8{fill:#FCD770;}
</style>
<rect class="st0" width="512" height="512"/>
<g>
	<path class="st1" d="M297.3,435.1v27.5H118.3v-27.5h55.1h68.9H297.3z"/>
	<g>
		<path class="st2" d="M287.3,415.2l10,19.9h-55.1v-27.5H275C280.2,407.5,285,410.5,287.3,415.2L287.3,415.2z"/>
		<path class="st2" d="M242.2,407.5v27.5h-68.9v-27.5V380h68.9V407.5z"/>
		<path class="st2" d="M128.2,415.2c2.3-4.7,7.1-7.6,12.3-7.6h32.8v27.5h-55.1L128.2,415.2z"/>
	</g>
	<path class="st3" d="M366.2,324.9v27.5c0,15.2-12.3,27.5-27.5,27.5h-96.4h-68.9H76.9c-15.2,0-27.5-12.3-27.5-27.5v-27.5h96.4v13.8
		c0,7.6,6.2,13.8,13.8,13.8h27.5h41.3H256c7.6,0,13.8-6.2,13.8-13.8v-13.8H366.2z"/>
	<path class="st4" d="M145.8,324.9v13.8c0,7.6,6.2,13.8,13.8,13.8H256c7.6,0,13.8-6.2,13.8-13.8v-13.8H145.8z"/>
	<path class="st5" d="M338.6,214.7c0-18,11.5-33.2,27.5-38.9v-16.2H76.9c-15.2,0-27.5,12.3-27.5,27.5v137.7h316.8v-71.3
		C350.2,247.9,338.6,232.7,338.6,214.7z"/>
	<path class="st6" d="M442,49.4v110.2l-0.1,0.1l-18.1-18.1l-16.4,9.9c-0.7-0.3-1.4-0.6-2.1-0.8l-4.7-18.7h-41.3l-4.7,18.7
		c-0.7,0.3-1.4,0.5-2.1,0.8l-16.4-9.9l-18,18h-55.3V49.4H442z"/>
	<path class="st2" d="M187.1,214.7v20.7c0,9.5-3.9,18.1-10.1,24.4c-6.3,6.2-14.9,10.1-24.4,10.1c-19,0-34.4-15.4-34.4-34.4v-20.7
		h20.7h27.5H187.1z"/>
	<path class="st7" d="M152.7,49.4c-22.9,0-43.5,9.2-58.5,24.2S70,109.2,70,132v0.2c0,9.4,1.7,18.7,4.7,27.4
		c4.1,11.6,10.7,22.2,19.5,31l24,24h20.7h27.5h20.7l24-24c8.8-8.8,15.4-19.5,19.5-31.1c3-8.7,4.7-17.9,4.7-27.3V132
		C235.3,86.4,198.4,49.4,152.7,49.4z"/>
	<path class="st8" d="M138.9,125.1v20.7h-20.7c-5.7,0-10.9-2.3-14.6-6.1c-3.7-3.7-6.1-8.9-6.1-14.6c0-5.7,2.3-10.9,6.1-14.6
		c3.7-3.7,8.9-6.1,14.6-6.1C129.7,104.5,138.9,113.7,138.9,125.1z"/>
	<path class="st8" d="M201.7,110.5c3.7,3.7,6.1,8.9,6.1,14.6c0,11.4-9.2,20.7-20.7,20.7h-20.7v-20.7c0-5.7,2.3-10.9,6.1-14.6
		s8.9-6.1,14.6-6.1C192.8,104.5,198,106.8,201.7,110.5L201.7,110.5z"/>
	<path class="st0" d="M297.3,228.5H341c5.7,16,21,27.5,39,27.5c25.8,0,45.9-23.5,40.4-50.2c-3.3-15.8-16.1-28.4-31.9-31.5
		c-21.5-4.3-40.8,8.1-47.5,26.4l-43.6,0.1l18.5-11.5c0.3-0.7,0.5-1.4,0.8-2.1l-9.9-16.4l11.3-11.3l18-18l16.4,9.9
		c0.7-0.3,1.4-0.6,2.1-0.8l4.7-18.7h41.3l4.7,18.7c0.7,0.3,1.4,0.5,2.1,0.8l16.4-9.9l18.1,18.1l11.2,11.2l-9.9,16.4
		c0.3,0.7,0.6,1.4,0.8,2.1l18.7,4.7v41.3l-18.7,4.7c-0.3,0.7-0.5,1.4-0.8,2.1l9.9,16.4l-29.3,29.3l-16.4-9.9
		c-0.7,0.3-1.4,0.6-2.1,0.8l-4.7,18.7h-34.4h-6.9l-4.7-18.7c-0.7-0.3-1.4-0.5-2.1-0.8l-16.4,9.9l-29.3-29.3l9.9-16.4
		c-0.3-0.7-0.6-1.4-0.8-2.1L297.3,228.5z"/>
	<path d="M469.5,188.6l-16.6-4.2l8.8-14.7l-12.8-12.9V42.5H256v110.2h-16.2c1.6-6.7,2.5-13.6,2.5-20.7c0-49.4-40.2-89.5-89.5-89.5
		s-89.5,40.2-89.5,89.7c0,7.7,1.1,15.1,2.9,22.3c-13.7,4.6-23.6,17.5-23.6,32.5v165.3c0,19,15.4,34.4,34.4,34.4h89.5v13.8h-25.9
		c-7.9,0-15,4.4-18.5,11.4l-10.7,21.4v36.1h192.8v-36.1l-10.7-21.4c-3.5-7-10.6-11.4-18.5-11.4h-25.9v-13.8h89.5
		c19,0,34.4-15.4,34.4-34.4v-48.2H406l4.2-16.6l14.7,8.8l36.8-36.8l-8.8-14.7l16.6-4.1L469.5,188.6z M269.8,56.3h165.3v86.9
		L424.9,133l-14.7,8.8l-4.2-16.6h-52.1l-4.2,16.6l-14.7-8.8l-19.7,19.7h-45.6L269.8,56.3z M301.6,166.5l-3.3,3.3l9.8,16.4l-12.6,7.8
		L256,194l0,13.8l89.9-0.2l1.6-4.6c5.8-16.2,22.5-25.5,39.6-22.1c13.1,2.6,23.7,13.2,26.4,26.2c2.2,10.5-0.3,21.1-6.9,29.2
		c-6.6,8.1-16.3,12.7-26.7,12.7c-14.6,0-27.6-9.2-32.5-23l-1.6-4.6h-69.2c-11.4,0-20.7,9.3-20.7,20.7v41.3c0,3.8-3.1,6.9-6.9,6.9
		c-3.8,0-6.9-3.1-6.9-6.9v-13.8c0-11.4-9.3-20.7-20.7-20.7c-11.4,0-20.7,9.3-20.7,20.7v13.8c0,3.8-3.1,6.9-6.9,6.9h-27.5
		c-3.8,0-6.9-3.1-6.9-6.9V276c19.5-3.3,34.4-20.3,34.4-40.7v-17.8l22-22c8.5-8.5,15-18.3,19.5-29.1H301.6z M125.1,221.6h55.1v13.8
		c0,15.2-12.4,27.5-27.5,27.5s-27.5-12.4-27.5-27.5V221.6z M132,138.9h-13.8c-7.6,0-13.8-6.2-13.8-13.8c0-7.6,6.2-13.8,13.8-13.8
		s13.8,6.2,13.8,13.8V138.9z M159.6,207.8h-13.8v-55.1h13.8V207.8z M152.7,56.3c41.8,0,75.8,34,75.8,76c0,20.2-7.9,39.3-22.2,53.6
		l-22,22h-10.9v-55.1h13.8c15.2,0,27.5-12.4,27.5-27.5s-12.4-27.5-27.5-27.5s-27.5,12.4-27.5,27.5v13.8h-13.8v-13.8
		c0-15.2-12.4-27.5-27.5-27.5S90.7,110,90.7,125.1s12.4,27.5,27.5,27.5H132v55.1h-10.9l-22-22c-14.3-14.3-22.2-33.3-22.2-53.8
		C76.9,90.3,110.9,56.3,152.7,56.3z M173.4,138.9v-13.8c0-7.6,6.2-13.8,13.8-13.8c7.6,0,13.8,6.2,13.8,13.8
		c0,7.6-6.2,13.8-13.8,13.8H173.4z M140.5,414.4h25.9v13.8h-37.1l5-10C135.6,415.9,137.9,414.4,140.5,414.4z M125.1,455.7V442h165.3
		v13.8H125.1z M275,414.4c2.6,0,5,1.5,6.2,3.8l5,10h-37.1v-13.8H275z M235.3,428.2h-55.1v-41.3h55.1V428.2z M338.6,373.1H76.9
		c-11.4,0-20.7-9.3-20.7-20.7v-20.7h82.6v6.9c0,11.4,9.3,20.7,20.7,20.7H256c11.4,0,20.7-9.3,20.7-20.7v-6.9h82.6v20.7
		C359.3,363.8,350,373.1,338.6,373.1z M262.9,331.8v6.9c0,3.8-3.1,6.9-6.9,6.9h-20.7v-13.8H262.9z M221.6,345.5H194v-13.8h27.5
		V345.5z M180.2,345.5h-20.7c-3.8,0-6.9-3.1-6.9-6.9v-6.9h27.5V345.5z M359.3,318h-303V187.1c0-9,5.9-16.8,14.2-19.5
		c4.4,10.3,10.8,19.8,18.9,28l22,22v17.8c0,20.4,14.9,37.4,34.4,40.7v7.5c0,11.4,9.3,20.7,20.7,20.7H194c11.4,0,20.7-9.3,20.7-20.7
		v-13.8c0-3.8,3.1-6.9,6.9-6.9c3.8,0,6.9,3.1,6.9,6.9v13.8c0,11.4,9.3,20.7,20.7,20.7s20.7-9.3,20.7-20.7v-41.3
		c0-3.8,3.1-6.9,6.9-6.9h18.7l12.7,7.9l-9.8,16.4l36.8,36.8l14.7-8.8l4.1,16.6h5.4V318z M455.7,230l-13.4,3.4l-3.7,1.4l-3.2,7.9
		l8.9,14.9l-21.6,21.6l-14.9-8.9l-8.4,3.4l-4.2,16.9h-30.6l-3.3-13.4l-1.4-3.7l-7.9-3.2l-14.9,8.9l-21.6-21.6l8.9-14.9l-3-7.2l0,0
		h14.9c7.9,16.7,24.8,27.5,43.6,27.5c14.6,0,28.2-6.5,37.4-17.8c9.2-11.3,12.7-26.2,9.7-40.7c-3.8-18.4-18.8-33.2-37.2-36.9
		c-22.3-4.5-44,6.5-53.4,26.4l-15.2,0l0.5-0.4l2.7-6.7l-8.9-14.9l21.6-21.6l14.9,8.9l8.4-3.5l4.2-16.9h30.6l4.2,16.8l8.4,3.5
		l14.9-8.9l21.6,21.6l-8.9,14.9l3.4,8.4l16.9,4.2V230z"/>
	<path d="M228.5,194h13.8v13.8h-13.8V194z"/>
	<path d="M283.5,70h13.8v13.8h-13.8V70z"/>
	<path d="M311.1,70h110.2v13.8H311.1V70z"/>
	<path d="M283.5,97.6h137.7v13.8H283.5V97.6z"/>
	<path d="M283.5,125.1h13.8v13.8h-13.8V125.1z"/>
	<path d="M311.1,125.1h13.8v13.8h-13.8V125.1z"/>
	<path d="M70,262.9h13.8v13.8H70V262.9z"/>
	<path d="M70,290.4h13.8v13.8H70V290.4z"/>
	<path d="M70,235.3h13.8v13.8H70V235.3z"/>
</g>
</svg>
