<?xml version="1.0" encoding="utf-8"?>
<!-- Generator: Adobe Illustrator 24.0.1, SVG Export Plug-In . SVG Version: 6.00 Build 0)  -->
<svg version="1.1" id="Layer_1" xmlns="http://www.w3.org/2000/svg" xmlns:xlink="http://www.w3.org/1999/xlink" x="0px" y="0px"
	 viewBox="0 0 512 512" style="enable-background:new 0 0 512 512;" xml:space="preserve">
<style type="text/css">
	.st0{fill:#E43D91;}
	.st1{fill:#382B73;}
	.st2{fill:#473080;}
	.st3{fill:#EF5A9D;}
	.st4{fill:#F06EA9;}
	.st5{fill:#FFFFFF;}
	.st6{fill:#D1D3D4;}
	.st7{fill:#FEDE3A;}
	.st8{fill:#F7CB15;}
</style>
<rect class="st0" width="512" height="512"/>
<image style="overflow:visible;opacity:0.57;" width="454" height="454" xlink:href="47FDD163.png"  transform="matrix(1 0 0 1 34 33)">
</image>
<g>
	<g>
		<g>
			<circle class="st1" cx="256" cy="256" r="212"/>
			<circle class="st2" cx="256" cy="256" r="181.1"/>
			<g>
				<path class="st1" d="M226.3,161.5c-12.2,0-22.8,7.8-27.7,19.1c-1.1,2.4-3.3,3.8-5.8,3.6c-3.4-0.3-7,0.1-10.6,1.2
					c-11.6,3.6-20.4,14.5-22.1,27.6c-0.7,5.4-0.2,10.6,1.2,15.4c1,3.3-0.4,7.1-3.4,8.3c-11.8,4.7-20.2,17.1-20.2,31.7
					c0,14.6,8.4,27,20.2,31.7c3,1.2,4.5,4.9,3.4,8.3c-1.4,4.7-1.9,9.9-1.2,15.4c1.7,13.1,10.5,23.9,22.1,27.6
					c3.7,1.2,7.2,1.5,10.6,1.2c2.4-0.2,4.7,1.2,5.8,3.6c5,11.3,15.5,19.1,27.7,19.1c17,0,30.8-15.1,30.8-33.8c0-0.2,0-0.4,0-0.7
					c0-0.4,0-0.7,0-1.1V197c0-0.4,0-0.7,0-1.1c0-0.2,0-0.4,0-0.7C257.1,176.6,243.3,161.5,226.3,161.5L226.3,161.5z"/>
				<path class="st1" d="M378.9,223.7c0-5.3-4.3-9.6-9.6-9.6h-20.2v19.1h20.2C374.6,233.2,378.9,228.9,378.9,223.7z"/>
				<path class="st1" d="M369.3,258.8h-20.2v19.1h20.2c5.3,0,9.6-4.3,9.6-9.6C378.9,263.1,374.6,258.8,369.3,258.8z"/>
				<path class="st1" d="M369.3,303.5h-20.2v19.1h20.2c5.3,0,9.6-4.3,9.6-9.6C378.9,307.8,374.6,303.5,369.3,303.5z"/>
				<path class="st1" d="M326.3,171.1c0-5.3-4.3-9.6-9.6-9.6c-5.3,0-9.6,4.3-9.6,9.6v20.2h19.1L326.3,171.1L326.3,171.1z"/>
				<path class="st1" d="M307.2,365.7c0,5.3,4.3,9.6,9.6,9.6s9.6-4.3,9.6-9.6v-20.2h-19.1L307.2,365.7L307.2,365.7z"/>
				<path class="st1" d="M334.5,191.2h-52.9v-20.2c0-2.6-1.1-5-2.8-6.8c-1.2-1.2-2.8-2.1-4.6-2.5c-1.1-0.3-2.2,0.6-2.2,1.7v209.7
					c0,1.2,1.1,2,2.2,1.7c1.7-0.4,3.2-1.3,4.4-2.5c1.7-1.7,2.8-4.1,2.8-6.8v-20.2h53c8.1,0,14.7-6.6,14.7-14.7V205.9
					C349.2,197.8,342.6,191.2,334.5,191.2z"/>
			</g>
			<path class="st3" d="M257.1,182.9c0-18.6-13.8-33.8-30.8-33.8c-12.2,0-22.8,7.8-27.7,19.1c-1.1,2.4-3.3,3.8-5.8,3.6
				c-3.4-0.3-7,0.1-10.6,1.2c-11.6,3.6-20.4,14.5-22.1,27.6c-0.7,5.4-0.2,10.6,1.2,15.4c1,3.3-0.4,7.1-3.4,8.3
				c-11.8,4.7-20.2,17.1-20.2,31.7c0,14.6,8.4,27,20.2,31.7c3,1.2,4.5,4.9,3.4,8.3c-1.4,4.7-1.9,9.9-1.2,15.4
				c1.7,13.1,10.5,23.9,22.1,27.6c3.7,1.2,7.2,1.5,10.6,1.2c2.4-0.2,4.7,1.2,5.8,3.6c5,11.3,15.5,19.1,27.7,19.1
				c17,0,30.8-15.1,30.8-33.8c0-0.2,0-0.4,0-0.7c0-0.4,0-0.7,0-1.1V184.7c0-0.4,0-0.7,0-1.1C257.1,183.3,257.1,183.1,257.1,182.9
				L257.1,182.9z"/>
			<path class="st0" d="M257.1,182.9c0-18.6-13.8-33.8-30.8-33.8c-2,0-3.9,0.2-5.8,0.6c14.2,3,25,16.7,25,33.1c0,0.2,0,0.4,0,0.7
				c0,0.4,0,0.7,0,1.1v142.7c0,0.4,0,0.7,0,1.1c0,0.2,0,0.4,0,0.7c0,16.5-10.8,30.1-25,33.1c1.9,0.4,3.8,0.6,5.8,0.6
				c17,0,30.8-15.1,30.8-33.8c0-0.2,0-0.4,0-0.7c0-0.4,0-0.7,0-1.1V184.7c0-0.4,0-0.7,0-1.1C257.1,183.3,257.1,183.1,257.1,182.9
				L257.1,182.9z"/>
			<path class="st4" d="M160.2,300.7c-0.5,3.4-0.6,6.9-0.1,10.6c0,0.2,0.1,0.5,0.1,0.7c0.3-1.7,0.6-3.3,1.1-4.9
				C162,304.9,161.5,302.5,160.2,300.7L160.2,300.7z"/>
			<path class="st4" d="M257.1,182.9c0-18.6-13.8-33.8-30.8-33.8c-12.2,0-22.8,7.8-27.7,19.1c-1.1,2.4-3.3,3.8-5.8,3.6
				c-3.4-0.3-7,0.1-10.6,1.2c-11.6,3.6-20.4,14.5-22.1,27.6c-0.5,3.6-0.4,7.1,0.1,10.5c1.9-12.8,10.6-23.3,22-26.8
				c3.7-1.2,7.2-1.5,10.6-1.2c2.4,0.2,4.7-1.2,5.8-3.6c5-11.3,15.5-19.1,27.7-19.1c17,0,30.8,15.1,30.8,33.8v-9.4c0-0.4,0-0.7,0-1.1
				C257.1,183.3,257.1,183.1,257.1,182.9L257.1,182.9z"/>
			<path class="st4" d="M257.1,195.9v-1.8c0,0.2,0,0.4,0,0.7C257.1,195.1,257.1,195.5,257.1,195.9z"/>
			<path class="st0" d="M226.3,332.8c-12.2,0-22.8-7.8-27.7-19.1c-1.1-2.4-3.3-3.8-5.8-3.6c-3.4,0.3-7-0.1-10.6-1.2
				c-11.6-3.6-20.4-14.5-22.1-27.6c-0.7-5.4-0.2-10.6,1.2-15.4c1-3.3-0.4-7.1-3.4-8.3c-7.4-3-13.5-9-17-16.7
				c-2.1,4.5-3.2,9.6-3.2,15c0,14.6,8.4,27,20.2,31.7c3,1.2,4.5,4.9,3.4,8.3c-1.4,4.7-1.9,9.9-1.2,15.4
				c1.7,13.1,10.5,23.9,22.1,27.6c3.7,1.2,7.2,1.5,10.6,1.2c2.4-0.2,4.7,1.2,5.8,3.6c5,11.3,15.5,19.1,27.7,19.1
				c17,0,30.8-15.1,30.8-33.8c0-0.2,0-0.4,0-0.7c0-0.4,0-0.7,0-1.1v-28.3C257.1,317.7,243.3,332.8,226.3,332.8L226.3,332.8z"/>
			<path class="st0" d="M257.1,299.1v-1.8c0,0.4,0,0.7,0,1.1C257.1,298.6,257.1,298.9,257.1,299.1z"/>
			<path class="st4" d="M245.5,295.2c-0.1,2.6-2.1,4.6-4.4,4.6c-0.1,0-0.1,0-0.2,0c-4.6-0.2-8.9-1.8-12.6-4.5
				c-11.7,6.6-20.6,17.5-25.1,31.1c-2.2,6.5-3.3,13.4-3.3,20.1c-0.5-0.9-0.9-1.8-1.3-2.7c-1.1-2.4-3.3-3.8-5.8-3.6
				c-0.5,0-0.9,0-1.4,0c0.5-5.8,1.7-11.6,3.6-17.2c5-14.8,14.4-26.9,26.7-34.7c-3.3-5.1-5-11.2-4.7-17.5c0.1-2.7,2.1-4.7,4.6-4.6
				c2.4,0.1,4.3,2.4,4.2,5c-0.2,4.8,1.3,9.4,4.2,13c2.9,3.6,7,5.7,11.4,5.9C243.8,290.3,245.6,292.5,245.5,295.2L245.5,295.2z
				 M196.9,287.8c2.3,0,4.3-2,4.4-4.6c0.1-2.6-1.7-4.9-4.2-5c-4.4-0.2-8.4-2.3-11.4-5.9c-2.9-3.6-4.4-8.2-4.2-13
				c0.1-2.7-1.7-4.9-4.2-5c-2.4-0.1-4.5,1.9-4.6,4.6c-0.2,4.2,0.5,8.3,1.9,12c-0.3,0.4-0.6,0.8-0.8,1.3c-3,7.3-8.2,13-14.8,16.3
				c2.1,1.6,3,4.7,2.1,7.5c-0.2,0.7-0.4,1.5-0.6,2.2c8.3-3.5,15.2-10,19.5-18.4c4.4,4.8,10.2,7.7,16.5,8
				C196.8,287.8,196.9,287.8,196.9,287.8L196.9,287.8z M228.7,243.2c-2.3,0.8-3.6,3.5-2.8,6c0.7,2.5,3.2,3.9,5.5,3.1
				c9-3.2,18.4-1.3,25.7,4.2v-11.1C248.6,240.9,238.5,239.8,228.7,243.2z M192.6,234.5c0.6,5.6,2.8,10.9,6.3,15.1
				c4.5,5.5,10.7,8.7,17.4,9.1c0.1,0,0.2,0,0.2,0c2.3,0,4.3-2,4.4-4.6c0.1-2.7-1.7-4.9-4.2-5c-4.4-0.2-8.4-2.3-11.4-5.9
				c-2.7-3.3-4.2-7.5-4.2-11.8c2.9-1.5,5.7-3.5,8.3-5.9c1.8-1.7,2.1-4.7,0.5-6.8c-1.6-2-4.3-2.3-6.2-0.6c-6.1,5.6-13.7,8.3-21.7,7.6
				c-7.9-0.7-15.1-4.8-20.2-11.4c-0.4-0.5-0.9-0.9-1.4-1.2c0.2,1,0.5,2,0.7,2.9c0.9,3.2-0.3,6.6-3,8c7.3,7.5,16.8,11.4,26.3,11.4
				C187.3,235.4,190,235.1,192.6,234.5L192.6,234.5z M215.4,198.5c-0.4,5.5,0.7,11,3.3,15.9c0.8,1.5,2.3,2.4,3.8,2.4
				c0.7,0,1.5-0.2,2.2-0.6c2.1-1.3,2.8-4.3,1.6-6.6c-2.2-4.2-2.8-9-1.6-13.7c1.1-4.6,3.9-8.5,7.7-10.9c2.1-1.3,2.8-4.3,1.6-6.6
				c-1.2-2.3-3.9-3.1-6-1.8c-4.6,2.9-8.2,7.2-10.3,12.4c-9.9-1.1-17.6-10.3-17.6-21.5c0-0.6-0.1-1.1-0.3-1.6
				c-0.4,0.7-0.7,1.5-1.1,2.2c-1.1,2.4-3.3,3.8-5.8,3.6c-0.5,0-0.9,0-1.4,0C193.1,185.6,202.9,196.4,215.4,198.5L215.4,198.5z"/>
			<path class="st3" d="M161.4,287.2c-0.7,0.4-1.5,0.9-2.2,1.3c0.8,0.6,1.4,1.4,1.8,2.3c0,0,0,0.1,0,0.1c0.1,0.2,0.2,0.5,0.3,0.7
				c0,0.1,0.1,0.3,0.1,0.4c0.1,0.2,0.1,0.4,0.1,0.6c0,0.2,0.1,0.4,0.1,0.6c0,0.2,0,0.4,0,0.5c0,0.2,0,0.5,0,0.7c0,0.1,0,0.3,0,0.4
				c-0.1,0.4-0.1,0.8-0.2,1.2c-0.2,0.7-0.4,1.5-0.6,2.2c1.6-0.7,3.2-1.5,4.7-2.4C163.7,293.1,162.4,290.3,161.4,287.2L161.4,287.2z"
				/>
			<path class="st3" d="M203.2,326.3c0.4-1.2,0.8-2.3,1.3-3.4c-2.3-2.6-4.3-5.6-5.8-8.9c-1.4,2.9-2.7,5.9-3.7,9
				c-1.9,5.6-3.1,11.4-3.6,17.2c0.5,0,0.9,0,1.4,0c2.4-0.2,4.7,1.2,5.8,3.6c0.4,0.9,0.9,1.8,1.3,2.7
				C199.9,339.6,201,332.8,203.2,326.3L203.2,326.3z"/>
			<path class="st5" d="M369.3,220.9h-20.2v-19.1h20.2c5.3,0,9.6,4.3,9.6,9.6C378.9,216.6,374.6,220.9,369.3,220.9z"/>
			<path class="st6" d="M369.3,211.3h-20.2v9.6h20.2c5.3,0,9.6-4.3,9.6-9.6c0-1.7-0.5-3.4-1.3-4.8
				C375.9,209.4,372.8,211.3,369.3,211.3z"/>
			<path class="st5" d="M369.3,265.6h-20.2v-19.1h20.2c5.3,0,9.6,4.3,9.6,9.6C378.9,261.3,374.6,265.6,369.3,265.6z"/>
			<path class="st6" d="M369.3,256h-20.2v9.6h20.2c5.3,0,9.6-4.3,9.6-9.6c0-1.7-0.5-3.4-1.3-4.8C375.9,254.1,372.8,256,369.3,256z"
				/>
			<path class="st5" d="M369.3,310.3h-20.2v-19.1h20.2c5.3,0,9.6,4.3,9.6,9.6S374.6,310.3,369.3,310.3z"/>
			<path class="st6" d="M369.3,300.7h-20.2v9.6h20.2c5.3,0,9.6-4.3,9.6-9.6c0-1.7-0.5-3.4-1.3-4.8
				C375.9,298.8,372.8,300.7,369.3,300.7z"/>
			<path class="st5" d="M281.6,158.7v20.2H272v-27.7c0-1.2,1.1-2,2.2-1.7c1.8,0.4,3.3,1.3,4.6,2.5
				C280.5,153.7,281.6,156.1,281.6,158.7z"/>
			<path class="st5" d="M326.3,158.7v20.2h-19.1v-20.2c0-5.3,4.3-9.6,9.6-9.6C322,149.2,326.3,153.4,326.3,158.7z"/>
			<path class="st5" d="M281.5,333.1v20.2c0,2.6-1.1,5-2.8,6.8c-1.2,1.2-2.7,2.1-4.4,2.5c-1.1,0.3-2.2-0.6-2.2-1.7v-27.7
				L281.5,333.1z"/>
			<path class="st5" d="M326.3,353.3v-20.2h-19.1v20.2c0,5.3,4.3,9.6,9.6,9.6C322,362.8,326.3,358.6,326.3,353.3z"/>
			<path class="st5" d="M334.5,178.9H272v154.3h62.5c8.1,0,14.7-6.6,14.7-14.7V193.5C349.2,185.4,342.6,178.9,334.5,178.9z"/>
			<path class="st3" d="M329.5,191.2H272v129.7h57.5c4.1,0,7.3-3.3,7.3-7.3v-115C336.9,194.4,333.6,191.2,329.5,191.2L329.5,191.2z"
				/>
			<g>
				<path class="st0" d="M336.9,198.5v7.3c0-4.1-3.3-7.3-7.3-7.3H272v-7.3h57.5C333.6,191.2,336.9,194.4,336.9,198.5z"/>
				<path class="st0" d="M297.2,285H272v-43.3c1.4,0,2.9,0.7,3.9,1.9l1.9,2.5l13,17.3l9.7,12.9l0.6,0.9
					C303.5,280.4,301.2,285,297.2,285L297.2,285z"/>
				<path class="st0" d="M319.4,191.2v55H272v-8.8h38.6v-46.2H319.4z"/>
				<path class="st0" d="M336.9,293.1v8.8h-58.5v7.6H272v-16.5H336.9z"/>
				<path class="st0" d="M295.6,309.6h8.8v11.3h-8.8V309.6z"/>
				<path class="st0" d="M299.8,191.2v31.9H272v-8.8h18.9v-23.1L299.8,191.2z"/>
				<path class="st0" d="M336.9,282.1h-26.3v-27.3h8.8v18.4h17.4V282.1z"/>
				<path class="st0" d="M291.5,229.8c0,2.2-1.7,3.9-3.9,3.9c-2.2,0-3.9-1.7-3.9-3.9s1.7-3.9,3.9-3.9
					C289.7,225.9,291.5,227.7,291.5,229.8z"/>
				<path class="st0" d="M315.7,311.2c0,2.2-1.7,3.9-3.9,3.9s-3.9-1.7-3.9-3.9s1.7-3.9,3.9-3.9C313.9,307.3,315.7,309.1,315.7,311.2
					z"/>
			</g>
			<path class="st7" d="M300.4,276.4c-0.8,0.8-1.9,1.2-3.2,1.2H272v-43.2c1.4,0,2.9,0.6,3.9,1.9l0.8,1l6.6,8.8l13,17.3l4.8,6.4
				C302.7,272,302.2,274.8,300.4,276.4z"/>
			<path class="st8" d="M300.4,276.4c-0.8,0.8-1.9,1.2-3.2,1.2H272v-14.1h24.3l4.8,6.4C302.7,272,302.2,274.8,300.4,276.4
				L300.4,276.4z"/>
			<path class="st6" d="M272,333.1h9.4V345H272V333.1z"/>
			<path class="st6" d="M307,333.1h19.1V345H307V333.1z"/>
			<path class="st6" d="M272,167h9.4v11.9H272V167z"/>
			<path class="st6" d="M307,167h19.1v11.9H307V167z"/>
		</g>
	</g>
</g>
</svg>
