<?xml version="1.0" encoding="utf-8"?>
<!-- Generator: Adobe Illustrator 24.0.1, SVG Export Plug-In . SVG Version: 6.00 Build 0)  -->
<svg version="1.1" id="Capa_1" xmlns="http://www.w3.org/2000/svg" xmlns:xlink="http://www.w3.org/1999/xlink" x="0px" y="0px"
	 viewBox="0 0 512 512" style="enable-background:new 0 0 512 512;" xml:space="preserve">
<style type="text/css">
	.st0{fill:#F24976;}
	.st1{fill:#EEF6FF;}
	.st2{fill:#C3DDF4;}
	.st3{fill:#293D7C;}
	.st4{fill:#1A2B63;}
	.st5{fill:#69CDFF;}
	.st6{fill:#52BBEF;}
	.st7{fill:#FF9518;}
	.st8{fill:#EF8318;}
	.st9{fill:#FFD00D;}
	.st10{fill:#91E0E8;}
	.st11{fill:#E26693;}
	.st12{fill:#FFAF10;}
	.st13{fill:#37C47A;}
	.st14{fill:#445EA0;}
	.st15{fill:#D9EAFC;}
</style>
<rect class="st0" width="512" height="512"/>
<g>
	<circle class="st0" cx="301.7" cy="299.7" r="208.2"/>
	<path class="st1" d="M280.2,278.2c16.1-16.1,37.5-24.9,60.2-24.9c15.5,0,30.4,4.1,43.3,11.8V118.6H74.8v269.2
		c0,4.7,3.8,8.5,8.5,8.5H278C247,363,247.7,310.6,280.2,278.2z"/>
	<path class="st2" d="M94.1,387.8V118.6H74.8v269.2c0,4.7,3.8,8.5,8.5,8.5h19.3C97.9,396.3,94.1,392.5,94.1,387.8z"/>
	<path class="st3" d="M378.8,72.9H79.7c-2.7,0-4.9,2.2-4.9,4.9V121h308.9V77.7C383.7,75.1,381.5,72.9,378.8,72.9z"/>
	<path class="st4" d="M99,72.9H79.7c-2.7,0-4.9,2.2-4.9,4.9V121h19.3V77.7C94.1,75.1,96.3,72.9,99,72.9z"/>
	<path class="st5" d="M209.3,224.6c0,2.3-1.9,4.2-4.2,4.2h-94.7c-2.3,0-4.2-1.9-4.2-4.2v-67.9c0-2.3,1.9-4.2,4.2-4.2h94.7
		c2.3,0,4.2,1.9,4.2,4.2L209.3,224.6L209.3,224.6L209.3,224.6z"/>
	<path class="st6" d="M125.4,224.6v-67.9c0-2.3,1.9-4.2,4.2-4.2h-19.3c-2.3,0-4.2,1.9-4.2,4.2v67.9c0,2.3,1.9,4.2,4.2,4.2h19.3
		C127.3,228.9,125.4,227,125.4,224.6z"/>
	<path class="st7" d="M259.3,312.3h-149c-2.3,0-4.2,1.9-4.2,4.2v40.6c0,2.3,1.9,4.2,4.2,4.2h148
		C253.9,345.3,254.2,328.2,259.3,312.3z"/>
	<path class="st8" d="M125.4,357.1v-40.6c0-2.3,1.9-4.2,4.2-4.2h-19.3c-2.3,0-4.2,1.9-4.2,4.2v40.6c0,2.3,1.9,4.2,4.2,4.2h19.3
		C127.3,361.4,125.4,359.5,125.4,357.1z"/>
	<path class="st9" d="M259.3,312.3h-30.8v49.1h29.9C253.9,345.3,254.2,328.2,259.3,312.3z"/>
	<g>
		<path class="st10" d="M347.4,158.8H243.2c-3.5,0-6.4-2.9-6.4-6.4s2.9-6.4,6.4-6.4h104.2c3.5,0,6.4,2.9,6.4,6.4
			S350.9,158.8,347.4,158.8z"/>
		<path class="st10" d="M347.4,184.3H243.2c-3.5,0-6.4-2.9-6.4-6.4c0-3.5,2.9-6.4,6.4-6.4h104.2c3.5,0,6.4,2.9,6.4,6.4
			S350.9,184.3,347.4,184.3z"/>
		<path class="st10" d="M347.4,209.8H243.2c-3.5,0-6.4-2.9-6.4-6.4c0-3.5,2.9-6.4,6.4-6.4h104.2c3.5,0,6.4,2.9,6.4,6.4
			C353.7,206.9,350.9,209.8,347.4,209.8z"/>
		<path class="st10" d="M347.4,235.2H243.2c-3.5,0-6.4-2.9-6.4-6.4c0-3.5,2.9-6.4,6.4-6.4h104.2c3.5,0,6.4,2.9,6.4,6.4
			C353.7,232.4,350.9,235.2,347.4,235.2z"/>
		<path class="st10" d="M329.3,254H106.1c-3.5,0-6.4,2.9-6.4,6.4s2.9,6.4,6.4,6.4h188.3C304.9,259.9,316.8,255.6,329.3,254z"/>
		<path class="st10" d="M278.5,279.9H106.1c-3.5,0-6.4,2.9-6.4,6.4s2.9,6.4,6.4,6.4h162.4C271.4,288.2,274.7,283.9,278.5,279.9z"/>
	</g>
	<path class="st11" d="M104.5,102.3c-1.7,0-3.3-0.7-4.5-1.9c-1.2-1.2-1.9-2.8-1.9-4.5c0-1.7,0.7-3.3,1.9-4.5
		c1.2-1.2,2.8-1.9,4.5-1.9c1.7,0,3.3,0.7,4.5,1.9c1.2,1.2,1.9,2.8,1.9,4.5c0,1.7-0.7,3.3-1.9,4.5
		C107.8,101.6,106.2,102.3,104.5,102.3z"/>
	<path class="st12" d="M125.4,102.3c-1.7,0-3.3-0.7-4.5-1.9c-1.2-1.2-1.9-2.8-1.9-4.5c0-1.7,0.7-3.3,1.9-4.5
		c1.2-1.2,2.8-1.9,4.5-1.9c1.7,0,3.3,0.7,4.5,1.9c1.2,1.2,1.9,2.8,1.9,4.5s-0.7,3.3-1.9,4.5C128.7,101.6,127.1,102.3,125.4,102.3z"
		/>
	<path class="st13" d="M146.3,102.3c-1.7,0-3.3-0.7-4.5-1.9c-1.2-1.2-1.9-2.8-1.9-4.5c0-1.7,0.7-3.3,1.9-4.5
		c1.2-1.2,2.8-1.9,4.5-1.9c1.7,0,3.3,0.7,4.5,1.9c1.2,1.2,1.9,2.8,1.9,4.5c0,1.7-0.7,3.3-1.9,4.5C149.6,101.6,148,102.3,146.3,102.3
		z"/>
	<path class="st14" d="M423,403.5L405.5,421l34.4,34.4c6.2-5.5,12-11.3,17.5-17.5L423,403.5z"/>
	<path class="st3" d="M429.9,393l-14.5-14.5c-3.8,7.2-8.8,14-14.9,20.1c-6,6-12.7,11-20,14.9l14.4,14.4c1.7,1.7,4.4,1.7,6,0
		l28.9-28.9C431.6,397.4,431.6,394.7,429.9,393z"/>
	<path class="st4" d="M404.9,418l-12.4-12.4c-3.8,3-7.8,5.6-12,7.8l14.4,14.4c1.7,1.7,4.4,1.7,6,0l9.9-9.9
		C409.3,419.7,406.6,419.7,404.9,418z"/>
	<path class="st14" d="M401.8,277c33.9,33.9,33.9,88.9,0,122.8c-33.9,33.9-88.9,33.9-122.8,0C245,365.9,245,310.9,279,277
		C312.9,243.1,367.9,243.1,401.8,277z"/>
	<path class="st5" d="M383.4,381.4c-23.8,23.8-62.3,23.8-86.1,0c-23.8-23.8-23.8-62.3,0-86.1c23.8-23.8,62.3-23.8,86.1,0
		C407.2,319.1,407.2,357.7,383.4,381.4z"/>
	<path class="st6" d="M383.4,381.4c2.2-2.2,4.1-4.5,5.9-6.8c-23.8,17.7-57.7,15.7-79.3-5.9c-21.6-21.6-23.6-55.4-5.9-79.3
		c-2.4,1.8-4.7,3.7-6.8,5.9c-23.8,23.8-23.8,62.3,0,86.1C321.1,405.2,359.6,405.2,383.4,381.4z"/>
	<path class="st14" d="M378.8,72.9H173.3V121h210.4V77.7C383.7,75.1,381.5,72.9,378.8,72.9z"/>
	<g>
		<circle class="st15" cx="350.8" cy="297.6" r="10.2"/>
		<circle class="st15" cx="372.2" cy="308.2" r="7.2"/>
	</g>
</g>
</svg>
