<svg id="outline" height="512" viewBox="0 0 512 512" width="512" xmlns="http://www.w3.org/2000/svg"><path d="m493.657 82.343-64-64a8 8 0 0 0 -5.657-2.343h-176a8 8 0 0 0 -8 8v320a8 8 0 0 0 8 8h24a104 104 0 1 0 192 0h24a8 8 0 0 0 8-8v-256a8 8 0 0 0 -2.343-5.657zm-61.657-39.029 36.686 36.686h-36.686zm-64 436.686a88 88 0 1 1 88-88 88.1 88.1 0 0 1 -88 88zm87.6-144a103.939 103.939 0 0 0 -175.2 0h-24.4v-304h160v56a8 8 0 0 0 8 8h56v240z"/><path d="m121.054 339.969a105.286 105.286 0 0 1 0 104.062l13.892 7.938a121.354 121.354 0 0 0 0-119.938z"/><path d="m166.993 316.115-13.986 7.77a140.26 140.26 0 0 1 0 136.23l13.986 7.77a156.255 156.255 0 0 0 0-151.77z"/><path d="m184.977 307.831a175.068 175.068 0 0 1 0 168.338l14.046 7.662a191.776 191.776 0 0 0 0-183.662z"/><path d="m88 301.342v-21.342a72.083 72.083 0 0 0 -72-72v16a56.064 56.064 0 0 1 56 56v22.956a8 8 0 0 0 .626 3.1l19.329 45.944h-3.955a8 8 0 0 0 -8 8v19.056l-11.578 5.789a8 8 0 0 0 0 14.31l11.578 5.789v11.056a8.009 8.009 0 0 1 -8 8h-56v16h56a24.027 24.027 0 0 0 24-24v-16a8 8 0 0 0 -4.422-7.155l-1.69-.845 1.689-.845a8 8 0 0 0 4.423-7.155v-16h8a8 8 0 0 0 7.374-11.1z"/><path d="m408 376a40 40 0 0 1 -80 0v-8h-16v8a56.078 56.078 0 0 0 48 55.419v8.581h-32v16h80v-16h-32v-8.581a56.078 56.078 0 0 0 48-55.419v-8h-16z"/><path d="m272 48h128v16h-128z"/><path d="m272 80h128v16h-128z"/><path d="m272 112h192v16h-192z"/><path d="m272 144h192v16h-192z"/><path d="m373.657 178.343a8 8 0 0 0 -11.314 0l-48 48a8 8 0 0 0 5.657 13.657h24v24a8 8 0 0 0 8 8h32a8 8 0 0 0 8-8v-24h24a8 8 0 0 0 5.657-13.657zm10.343 45.657a8 8 0 0 0 -8 8v24h-16v-24a8 8 0 0 0 -8-8h-12.687l28.687-28.687 28.687 28.687z"/><path d="m368 320a24.028 24.028 0 0 0 -24 24v32a24 24 0 0 0 48 0v-32a24.028 24.028 0 0 0 -24-24zm0 16a8.009 8.009 0 0 1 8 8v8h-16v-8a8.009 8.009 0 0 1 8-8zm0 48a8.009 8.009 0 0 1 -8-8v-8h16v8a8.009 8.009 0 0 1 -8 8z"/></svg>