<?xml version="1.0" encoding="utf-8"?>
<!-- Generator: Adobe Illustrator 24.0.1, SVG Export Plug-In . SVG Version: 6.00 Build 0)  -->
<svg version="1.1" xmlns="http://www.w3.org/2000/svg" xmlns:xlink="http://www.w3.org/1999/xlink" x="0px" y="0px"
	 viewBox="0 0 512 512" style="enable-background:new 0 0 512 512;" xml:space="preserve">
<style type="text/css">
	.st0{fill:#49C3E8;}
	.st1{fill:#E9EDF1;}
	.st2{fill:#FC6F58;}
	.st3{fill:#FFD160;}
	.st4{fill:#FFFFFF;}
</style>
<g id="Layer_2">
	<rect class="st0" width="512" height="512"/>
</g>
<g id="Layer_1">
	<g>
		<path class="st1" d="M428.2,442.6H83.8c-29,0-52.8-23.8-52.8-52.8V122.2c0-29,23.8-52.8,52.8-52.8h344.4c29,0,52.8,23.8,52.8,52.8
			v267.7C481,418.9,457.2,442.6,428.2,442.6z"/>
		<path d="M481,152.5v-30.3c0-29-23.8-52.8-52.8-52.8H83.8c-29,0-52.8,23.8-52.8,52.8v30.3L481,152.5L481,152.5z"/>
		<circle class="st2" cx="82.3" cy="110.9" r="11.8"/>
		<circle class="st0" cx="115.9" cy="110.9" r="11.8"/>
		<circle class="st3" cx="149.6" cy="110.9" r="11.8"/>
		<g>
			<rect x="408.4" y="107.6" class="st4" width="26.7" height="6"/>
			<polygon class="st4" points="427.3,128.6 422.8,124.7 434.7,110.9 422.8,97.1 427.3,93.2 442.7,110.9 			"/>
			<path class="st4" d="M364.3,129.7H214.1c-10.3,0-18.8-8.5-18.8-18.8l0,0c0-10.3,8.5-18.8,18.8-18.8h150.2
				c10.3,0,18.8,8.5,18.8,18.8l0,0C383.1,121.2,374.7,129.7,364.3,129.7z"/>
		</g>
		<path d="M217.9,119.9l-4.1-16.9h3.3l1.6,7.7c0.4,2.1,0.8,4.2,1.1,5.9h0c0.3-1.8,0.8-3.8,1.2-5.9l1.8-7.7h3.2l1.7,7.8
			c0.4,2,0.8,3.9,1,5.7h0.1c0.3-1.9,0.7-3.8,1.1-5.8l1.8-7.7h3.1l-4.5,16.9h-3.3l-1.8-8c-0.4-1.9-0.7-3.5-0.9-5.4h-0.1
			c-0.3,1.8-0.6,3.4-1.1,5.4l-2,8H217.9z"/>
		<path d="M239.9,119.9l-4.1-16.9h3.3l1.6,7.7c0.4,2.1,0.8,4.2,1.1,5.9h0c0.3-1.8,0.8-3.8,1.2-5.9l1.8-7.7h3.2l1.7,7.8
			c0.4,2,0.8,3.9,1,5.7h0.1c0.3-1.9,0.7-3.8,1.1-5.8l1.8-7.7h3.1l-4.5,16.9h-3.3l-1.8-8c-0.4-1.9-0.7-3.5-0.9-5.4h-0.1
			c-0.3,1.8-0.6,3.4-1.1,5.4l-2,8H239.9z"/>
		<path d="M261.9,119.9l-4.1-16.9h3.3l1.6,7.7c0.4,2.1,0.8,4.2,1.1,5.9h0c0.3-1.8,0.8-3.8,1.2-5.9l1.8-7.7h3.2l1.7,7.8
			c0.4,2,0.8,3.9,1,5.7h0.1c0.3-1.9,0.7-3.8,1.1-5.8l1.8-7.7h3.1l-4.5,16.9h-3.3l-1.8-8c-0.4-1.9-0.7-3.5-0.9-5.4h-0.1
			c-0.3,1.8-0.6,3.4-1.1,5.4l-2,8H261.9z"/>
		<path d="M278.9,118.2c0-1.1,0.8-2,1.9-2c1.1,0,1.9,0.8,1.9,2c0,1.1-0.8,2-1.9,2C279.7,120.2,278.9,119.3,278.9,118.2z"/>
		<path class="st0" d="M255.6,205.6c-113.9,0-156.9,91.9-156.9,91.9s42.7,91.9,156.6,91.9s156.9-91.9,156.9-91.9
			S369.4,205.6,255.6,205.6z"/>
		<circle cx="255.4" cy="297.5" r="69.3"/>
		<circle class="st2" cx="255.4" cy="297.5" r="58.4"/>
		
			<ellipse transform="matrix(0.1602 -0.9871 0.9871 0.1602 -79.1766 502.0062)" class="st4" cx="255.4" cy="297.5" rx="39.5" ry="39.5"/>
		<circle cx="255.4" cy="297.5" r="19.6"/>
	</g>
</g>
</svg>
