<svg xmlns="http://www.w3.org/2000/svg" viewBox="0 0 251.1 770.24"><title>why-hireAsset 2mdpi</title><g id="Layer_2" data-name="Layer 2"><g id="Layer_1-2" data-name="Layer 1"><polygon points="88.15 748.68 90.87 701.71 113.51 701.69 108.63 748.67 88.15 748.68" fill="#fb838f"/><path d="M88.15,748.68l25.37,0s29.58-1.43,34.53,21.46l-61.2,0Z" fill="#161613"/><polygon points="137.07 435.02 121.75 727.3 75.5 727.34 84.53 435.06 137.07 435.02" fill="#e28f36"/><polygon points="9.62 748.75 17.27 701.77 39.91 701.75 30.1 748.73 9.62 748.75" fill="#fb838f"/><path d="M9.62,748.75l25.37,0s29.58-1.43,34.53,21.45l-62.34.06Z" fill="#161613"/><path d="M42.08,437S-2.46,726.67.11,727.18s49.6,0,49.6,0l59.83-291.6Z" fill="#e28f36"/><line x1="80.17" y1="581.18" x2="100.67" y2="483.14" fill="#e28f36" stroke="#161613" stroke-miterlimit="10" stroke-width="0.91"/><path d="M125.15,316.8a23.21,23.21,0,0,0-21.37-17.91,190.19,190.19,0,0,0-19.37-.16s-24.52,1.07-46.1,22.61L42.08,437l95-2Z" fill="#fdfaf5"/><path d="M143.83,475.74a18.53,18.53,0,1,1,7.84-25A18.53,18.53,0,0,1,143.83,475.74Z" fill="#fb838f"/><polygon points="133.24 445.55 107.07 434.23 100.22 451.68 127 464.84 133.24 445.55" fill="#fb838f"/><path d="M79,322.29,54.61,398.87,122.19,438l-13,24.75-86-41.08A18,18,0,0,1,13.72,400s6.51-54,24.41-78.69C43.74,313.62,79,322.29,79,322.29Z" fill="#fdfaf5"/><polyline points="65.72 363.94 54.61 398.87 122.19 437.95" fill="none" stroke="#161613" stroke-miterlimit="10" stroke-width="0.91"/><path d="M227.25,230.52a18.53,18.53,0,1,1-26.2.33A18.54,18.54,0,0,1,227.25,230.52Z" fill="#fb838f"/><polygon points="201.86 249.98 199.24 278.37 217.95 279.45 222.13 249.9 201.86 249.98" fill="#fb838f"/><path d="M108.71,299.75l78.84,28.65,8.67-66.64L223,266.52l-9.87,93.23a18,18,0,0,1-21.56,9.54L122.66,345.2Z" fill="#fdfaf5"/><path d="M169.15,173.35l-3-12q-3.89-15.54-.13-28.69t18.16-30.52q14-16.39,17.48-25.36a29.41,29.41,0,0,0,1.17-18.35q-2.62-10.53-11.78-14.08T168,44.29Q143.71,50.37,116.59,74L90.07,43a159,159,0,0,1,71.51-39.4q33.33-8.34,57,2.76T249,44.15q4.46,17.81-.39,32.78T225.1,113.76q-12.66,15.39-15.29,22.41t-.2,16.73l2.43,9.72ZM177.82,230q-3.4-13.6,2.14-22.38t19.46-12.27Q212.86,192,222,197.28t12.47,18.55q3.2,12.78-2.41,22T213.2,250.4q-13.6,3.39-22.85-1.94T177.82,230Z" fill="#ffe568"/><path d="M76,258.08l-6.86,41.51a15.34,15.34,0,0,0,13,17.5h0a15.34,15.34,0,0,0,17.35-13.28l4.62-33.16Z" fill="#fb838f"/><path d="M112.12,231,120,259.3c4.57,11.6-3.47,28.2-15.89,27.15h0a22.08,22.08,0,0,1-19.37-22.23l.47-31.76C86.07,230.33,105.46,219.77,112.12,231Z" fill="#fb838f"/><path d="M115,246.36l8.3,8a2.87,2.87,0,0,1,.23,4l-3.23,2.46Z" fill="#fb838f"/><path d="M78.37,257.59s8.09,15.62-5.58,19.91L60.07,264.61c-5.23-6.1-8.07-16-6.73-23.88,1.08-6.41,4.37-10.58,12.13-16.85,18.38-14.87,32.81-8.52,35.75.6l-11.73,22.9Z" fill="#000200"/><path d="M92.55,228.34s7.67,15.06-5.68,21.26Z" fill="#000200"/><polygon points="89.5 242.6 92.34 253.75 84.38 255.91 84.53 244.76 89.5 242.6" fill="#000200"/><path d="M102,286.1s-10.51-3.28-13.89-10.31a27.79,27.79,0,0,0,13,16.77Z" fill="#000200"/><path d="M85.75,253.57a8.54,8.54,0,1,1-8.48-4.24A8.54,8.54,0,0,1,85.75,253.57Z" fill="#fb838f"/><path d="M149.06,222.51a2.12,2.12,0,0,0-2.56-1.28l-33.07,9.3c-4-8.83-14.38-22.51-34.82-18.38C53.09,217.31,50.06,236.34,51.66,248c.18,1.3.41,2.54.68,3.72l95.31-26.43A2.13,2.13,0,0,0,149.06,222.51Z" fill="#e28f36"/></g></g></svg>